<svg width="512" height="512" viewBox="0 0 512 512" fill="none" xmlns="http://www.w3.org/2000/svg">
<path d="M256 16C123.452 16 16 123.452 16 256C16 388.548 123.452 496 256 496C388.548 496 496 388.548 496 256C496 123.452 388.548 16 256 16ZM403.078 403.078C366.608 439.439 317.908 460.919 266.466 463.334C215.023 465.749 164.525 448.925 124.809 416.141C85.0938 383.357 59.0066 336.96 51.6309 285.992C44.2551 235.024 56.1191 183.136 84.9112 140.438C113.703 97.7394 157.361 67.2899 207.377 55.0222C257.394 42.7546 310.186 49.5478 355.467 74.078C400.748 98.6082 435.275 139.118 452.32 187.715C469.364 236.311 467.706 289.513 447.667 336.953C437.223 361.673 422.08 384.13 403.078 403.078Z" fill="black"/>
<path d="M142.319 241.027L164.947 263.654L240 188.602V376H272V188.602L347.053 263.654L369.681 241.027L256 127.347L142.319 241.027V241.027Z" fill="black"/>
</svg>
