<svg width="23" height="23" viewBox="0 0 23 23" fill="none" xmlns="http://www.w3.org/2000/svg">
<path d="M9.58342 17.25C11.2844 17.2497 12.9364 16.6802 14.2764 15.6324L18.4892 19.8452L19.8443 18.4901L15.6315 14.2773C16.6799 12.9372 17.2497 11.2848 17.2501 9.58335C17.2501 5.35615 13.8106 1.91669 9.58342 1.91669C5.35621 1.91669 1.91675 5.35615 1.91675 9.58335C1.91675 13.8106 5.35621 17.25 9.58342 17.25ZM9.58342 3.83335C12.7545 3.83335 15.3334 6.41223 15.3334 9.58335C15.3334 12.7545 12.7545 15.3334 9.58342 15.3334C6.41229 15.3334 3.83341 12.7545 3.83341 9.58335C3.83341 6.41223 6.41229 3.83335 9.58342 3.83335Z" fill="black"/>
</svg>
