<svg width="31" height="27" viewBox="0 0 31 27" fill="none" xmlns="http://www.w3.org/2000/svg">
<path d="M25.9883 8.66708L22.3329 5.01167C21.6069 4.28476 20.622 3.8759 19.5946 3.875H11.4054C10.378 3.8759 9.39309 4.28476 8.66708 5.01167L5.01167 8.66708C4.28476 9.39309 3.8759 10.378 3.875 11.4054V23.25C3.875 24.2777 4.28326 25.2633 5.00996 25.99C5.73666 26.7167 6.72229 27.125 7.75 27.125H23.25C24.2777 27.125 25.2633 26.7167 25.99 25.99C26.7167 25.2633 27.125 24.2777 27.125 23.25V11.4054C27.1241 10.378 26.7152 9.39309 25.9883 8.66708ZM10.4883 6.83292C10.7359 6.59689 11.0634 6.46309 11.4054 6.45833H19.5946C19.9366 6.46309 20.2641 6.59689 20.5117 6.83292L22.7204 9.04167H8.27958L10.4883 6.83292ZM23.25 24.5417H7.75C7.40743 24.5417 7.07889 24.4056 6.83665 24.1633C6.59442 23.9211 6.45833 23.5926 6.45833 23.25V11.625H24.5417V23.25C24.5417 23.5926 24.4056 23.9211 24.1633 24.1633C23.9211 24.4056 23.5926 24.5417 23.25 24.5417Z" fill="black"/>
<path d="M19.3749 14.2083C19.0323 14.2083 18.7038 14.3444 18.4616 14.5866C18.2193 14.8289 18.0833 15.1574 18.0833 15.5C18.0833 16.1851 17.8111 16.8422 17.3266 17.3267C16.8421 17.8111 16.1851 18.0833 15.4999 18.0833C14.8148 18.0833 14.1577 17.8111 13.6732 17.3267C13.1888 16.8422 12.9166 16.1851 12.9166 15.5C12.9166 15.1574 12.7805 14.8289 12.5383 14.5866C12.296 14.3444 11.9675 14.2083 11.6249 14.2083C11.2823 14.2083 10.9538 14.3444 10.7116 14.5866C10.4693 14.8289 10.3333 15.1574 10.3333 15.5C10.3333 16.8703 10.8776 18.1844 11.8465 19.1534C12.8155 20.1223 14.1296 20.6666 15.4999 20.6666C16.8702 20.6666 18.1844 20.1223 19.1533 19.1534C20.1222 18.1844 20.6666 16.8703 20.6666 15.5C20.6666 15.1574 20.5305 14.8289 20.2883 14.5866C20.046 14.3444 19.7175 14.2083 19.3749 14.2083Z" fill="black"/>
</svg>
