<svg width="36" height="31" viewBox="0 0 36 31" fill="none" xmlns="http://www.w3.org/2000/svg">
<g clip-path="url(#clip0_4_2418)">
<path d="M30.9883 12.6671L27.3329 9.01167C26.6069 8.28476 25.622 7.8759 24.5946 7.875H16.4054C15.378 7.8759 14.3931 8.28476 13.6671 9.01167L10.0117 12.6671C9.28476 13.3931 8.8759 14.378 8.875 15.4054V27.25C8.875 28.2777 9.28326 29.2633 10.01 29.99C10.7367 30.7167 11.7223 31.125 12.75 31.125H28.25C29.2777 31.125 30.2633 30.7167 30.99 29.99C31.7167 29.2633 32.125 28.2777 32.125 27.25V15.4054C32.1241 14.378 31.7152 13.3931 30.9883 12.6671ZM15.4883 10.8329C15.7359 10.5969 16.0634 10.4631 16.4054 10.4583H24.5946C24.9366 10.4631 25.2641 10.5969 25.5117 10.8329L27.7204 13.0417H13.2796L15.4883 10.8329ZM28.25 28.5417H12.75C12.4074 28.5417 12.0789 28.4056 11.8367 28.1633C11.5944 27.9211 11.4583 27.5926 11.4583 27.25V15.625H29.5417V27.25C29.5417 27.5926 29.4056 27.9211 29.1633 28.1633C28.9211 28.4056 28.5926 28.5417 28.25 28.5417Z" fill="black"/>
<path d="M24.3749 18.2083C24.0323 18.2083 23.7038 18.3444 23.4616 18.5866C23.2193 18.8289 23.0833 19.1574 23.0833 19.5C23.0833 20.1851 22.8111 20.8422 22.3266 21.3267C21.8421 21.8111 21.1851 22.0833 20.4999 22.0833C19.8148 22.0833 19.1577 21.8111 18.6732 21.3267C18.1888 20.8422 17.9166 20.1851 17.9166 19.5C17.9166 19.1574 17.7805 18.8289 17.5383 18.5866C17.296 18.3444 16.9675 18.2083 16.6249 18.2083C16.2823 18.2083 15.9538 18.3444 15.7116 18.5866C15.4693 18.8289 15.3333 19.1574 15.3333 19.5C15.3333 20.8703 15.8776 22.1844 16.8465 23.1534C17.8155 24.1223 19.1296 24.6666 20.4999 24.6666C21.8702 24.6666 23.1844 24.1223 24.1533 23.1534C25.1222 22.1844 25.6666 20.8703 25.6666 19.5C25.6666 19.1574 25.5305 18.8289 25.2883 18.5866C25.046 18.3444 24.7175 18.2083 24.3749 18.2083Z" fill="black"/>
</g>
<defs>
<clipPath id="clip0_4_2418">
<rect width="36" height="31" fill="white"/>
</clipPath>
</defs>
</svg>
