<svg width="36" height="36" viewBox="0 0 36 36" fill="none" xmlns="http://www.w3.org/2000/svg">
<rect width="36" height="36" fill="#DC4E41"/>
<path d="M27.9077 17.3219C27.8992 16.5572 27.8964 15.7869 27.8936 15.0194H25.6053C25.5968 15.7841 25.5911 16.5516 25.5854 17.3219C24.8151 17.3247 24.0505 17.3304 23.2858 17.3389V19.63C24.0505 19.6385 24.8208 19.6441 25.5854 19.6526C25.5939 20.4173 25.5939 21.1848 25.5996 21.9494H27.8907C27.8936 21.1848 27.8992 20.4173 27.9049 19.647C28.6752 19.6385 29.4398 19.6357 30.2045 19.6272V17.336C29.4427 17.3304 28.6724 17.3304 27.9077 17.3219ZM12.8979 17.3332C12.8951 18.248 12.8979 19.1655 12.9008 20.0803C14.4357 20.1313 15.9735 20.1086 17.5085 20.1313C16.8316 23.5382 12.2013 24.6427 9.75156 22.4167C7.23105 20.4654 7.35 16.1862 9.96963 14.3737C11.8019 12.9124 14.4046 13.2721 16.2369 14.538C16.9562 13.8725 17.6303 13.1588 18.2788 12.4225C16.7552 11.2075 14.886 10.3409 12.8979 10.4315C8.74619 10.2928 4.93144 13.9291 4.86347 18.0837C4.59726 21.4793 6.8289 24.8069 9.97812 26.0077C13.116 27.217 17.1403 26.3929 19.1454 23.5722C20.468 21.7908 20.754 19.4969 20.5982 17.3417C18.0296 17.3219 15.4638 17.3247 12.8979 17.3332Z" fill="white"/>
</svg>
