<svg width="458" height="148" viewBox="0 0 458 148" fill="none" xmlns="http://www.w3.org/2000/svg">
<path fill-rule="evenodd" clip-rule="evenodd" d="M25.093 2.28896C27.369 3.67696 28.619 5.45295 29.425 8.44495C30.932 14.044 30.166 17.434 24.86 28.636C19.112 40.768 18.384 45.603 21.591 50.324C22.896 52.245 24.719 53.962 25.641 54.14C26.562 54.318 31.497 52.79 36.605 50.745C56.04 42.967 75.457 45.512 92.728 58.101C97.473 61.56 97.747 61.626 107.728 61.727C116.227 61.814 118.672 62.214 122.637 64.167C130.575 68.076 134.388 75.95 132.473 84.476C131.073 90.705 127.832 91.782 125.551 86.776C124.205 83.823 122.394 83.568 122.394 86.331C122.394 88.847 121.316 88.842 116.334 86.301C112.831 84.513 112.283 84.457 111.755 85.831C111.426 86.69 111.42 88.711 111.742 90.323C112.065 91.935 111.955 93.484 111.498 93.767C111.041 94.049 107.575 93.423 103.795 92.375C100.015 91.326 96.702 90.69 96.432 90.96C96.162 91.23 97.686 92.916 99.82 94.707C103.68 97.948 103.714 98.0399 106.997 114.397C110.222 130.458 110.377 130.896 113.845 133.678C115.797 135.244 117.394 137.204 117.394 138.034C117.394 138.864 118.519 140.428 119.894 141.51C122.727 143.738 123.139 146.108 120.846 146.988C118.986 147.702 107.813 142.202 104.067 138.729C102.457 137.236 101.385 135.172 101.372 133.541C101.333 128.739 95.633 108.253 93.76 106.183C92.762 105.08 89.078 102.574 85.573 100.614C77.743 96.235 70.94 95.528 53.145 97.243C28.391 99.628 18.394 94.059 18.394 77.882C18.394 72.375 18.007 71.297 13.889 65.324C5.75498 53.526 5.45198 42.519 12.93 30.404C19.806 19.264 19.426 12.326 11.881 11.276C9.68799 10.971 6.8 10.124 5.464 9.39495C3.131 8.12095 3.10898 8.01296 4.90498 6.69896C5.93398 5.94696 7.523 5.33096 8.436 5.33096C9.349 5.33096 12.212 4.20596 14.798 2.83096C20.45 -0.174045 21.005 -0.203045 25.093 2.28896ZM294.532 17.902C292.538 19.897 292.499 24.703 294.464 26.334C296.395 27.936 300.527 27.936 302.458 26.334C304.423 24.703 304.384 19.897 302.39 17.902C301.525 17.038 299.757 16.331 298.461 16.331C297.165 16.331 295.397 17.038 294.532 17.902ZM173.711 17.898C173.299 18.319 172.961 30.106 172.961 44.089V69.514L187.711 69.151C201.495 68.811 202.806 68.608 207.72 66.038C210.732 64.463 214.217 61.58 215.875 59.291C221.399 51.666 222.276 39.788 217.942 31.293C215.549 26.603 208.718 20.673 204.026 19.214C199.763 17.888 174.781 16.803 173.711 17.898ZM270.961 40.641C270.961 62.713 271.079 64.211 273.004 66.659C275.546 69.89 280.821 70.989 286.14 69.396C289.059 68.521 289.968 67.793 289.539 66.673C289.216 65.833 288.693 64.112 288.376 62.849C287.916 61.016 287.161 60.582 284.631 60.692L281.461 60.831L280.961 39.331L280.461 17.831L275.711 17.526L270.961 17.221V40.641ZM200.29 28.695C207.461 31.691 211.551 40.982 209.044 48.578C208.428 50.446 206.334 53.515 204.392 55.398C201.069 58.619 200.391 58.842 192.911 59.182L184.961 59.543V43.437V27.331H190.993C194.311 27.331 198.494 27.945 200.29 28.695ZM234.855 34.146C221.649 42.628 223.581 62.678 238.193 68.783C244.461 71.402 254.329 70.339 258.873 66.556L260.945 64.831L258.93 61.7L256.916 58.57L253.227 60.45C251.198 61.485 248.464 62.331 247.151 62.331C243.486 62.331 238.363 59.508 237.134 56.811L236.029 54.387L249.745 54.109L263.461 53.831L263.215 49.05C262.664 38.312 256.537 32.082 245.983 31.529C240.151 31.223 238.974 31.5 234.855 34.146ZM361.442 32.725C355.45 35.336 349.972 43.983 349.972 50.831C349.972 58.888 356.325 67.273 363.997 69.343C369.319 70.778 376.223 70.127 381.284 67.714C385.453 65.726 385.695 64.844 383.023 61.367C381.245 59.054 380.962 58.992 378.394 60.367C373.946 62.747 366.591 62.272 363.542 59.407C358.664 54.825 359.726 54.331 374.461 54.331H387.961L387.955 51.081C387.941 42.93 383.512 35.295 377.29 32.695C373.194 30.984 365.404 30.998 361.442 32.725ZM408.601 33.801C405.149 36.143 404.961 36.169 404.961 34.301C404.961 32.604 404.269 32.331 399.961 32.331H394.961V50.831V69.331H399.961H404.961V56.986C404.961 42.89 405.589 41.593 412.883 40.615C416.948 40.069 416.961 40.053 416.961 35.699C416.961 31.775 416.721 31.331 414.601 31.331C413.302 31.331 410.602 32.442 408.601 33.801ZM293.961 50.831V69.331H298.961H303.961V50.831V32.331H298.961H293.961V50.831ZM309.272 35.581C310.008 37.368 313.277 45.709 316.536 54.115L322.461 69.398L327.934 69.115L333.407 68.831L340.581 50.581L347.756 32.331H342.511H337.265L332.966 44.081C330.602 50.544 328.396 56.143 328.064 56.524C327.732 56.906 325.44 51.618 322.97 44.774L318.48 32.331H313.207H307.934L309.272 35.581ZM421.967 44.581C421.973 59.564 422.989 63.747 427.272 66.439C431.528 69.113 439.742 68.609 444.071 65.408C445.747 64.169 447.362 63.399 447.66 63.696C449.049 65.086 446.659 71.407 443.85 73.771C440.131 76.901 435.84 77.073 430.423 74.312C426.652 72.389 426.399 72.377 425.138 74.062C422.056 78.18 421.93 79.082 424.231 80.563C433.797 86.725 448.583 84.984 454.402 77.011C456.298 74.413 456.485 72.537 456.767 53.261L457.073 32.331H452.017H446.961V44.274C446.961 55.483 446.824 56.313 444.738 57.774C441.67 59.924 435.675 59.777 433.616 57.502C432.275 56.02 431.961 53.459 431.961 44.002V32.331H426.961H421.961L421.967 44.581ZM251.326 41.404C252.775 42.543 253.961 44.343 253.961 45.404C253.961 47.164 253.181 47.331 244.961 47.331C240.011 47.331 235.961 47.084 235.961 46.781C235.961 45.409 239.048 40.46 240.19 40C243.312 38.744 248.829 39.439 251.326 41.404ZM376.379 42.416C377.806 44.112 378.72 45.912 378.409 46.416C378.098 46.919 374.045 47.331 369.402 47.331C362.153 47.331 360.961 47.093 360.961 45.645C360.961 42.314 365.017 39.331 369.546 39.331C373.052 39.331 374.231 39.863 376.379 42.416ZM188.955 88.265C178.031 91.588 169.961 102.451 169.961 113.831C169.961 123.198 176.126 133.332 184.393 137.553C190.057 140.446 200.637 141.108 206.345 138.928C210.081 137.502 218.963 130.077 218.96 128.384C218.96 128.08 216.869 126.862 214.313 125.679L209.667 123.526L207.281 126.362C200.831 134.028 188.331 131.748 183.282 121.985C182.398 120.276 181.675 116.544 181.675 113.691C181.675 104.99 186.792 98.6999 194.737 97.6339C200.325 96.8849 203.263 97.787 206.823 101.347L209.84 104.364L214.344 102.176C219.347 99.745 219.343 99.009 214.292 93.906C209.963 89.531 204.327 87.366 197.461 87.439C194.161 87.474 190.333 87.846 188.955 88.265ZM226.16 111.919L226.461 135.507L229.267 137.919C232.44 140.647 240.268 141.29 243.301 139.072C244.815 137.964 244.869 137.392 243.742 134.322C242.668 131.394 241.977 130.831 239.461 130.831H236.461L236.191 109.581L235.921 88.331H230.89H225.858L226.16 111.919ZM292.961 113.831V139.331H297.961C302.319 139.331 302.961 139.07 302.961 137.301C302.961 135.287 302.983 135.288 305.857 137.412C313.026 142.713 323.943 140.097 328.158 132.068C331.214 126.247 331.328 115.484 328.392 109.888C325.5 104.375 322.012 102.081 315.752 101.575C311.298 101.215 309.868 101.553 306.711 103.709L302.961 106.271V97.301V88.331H297.961H292.961V113.831ZM53.919 106.715C54.942 116.27 54.447 117.3 46.684 121.761C31.522 130.476 21.662 137.547 20.272 140.704C19.313 142.88 17.982 144.023 15.894 144.463C11.484 145.391 0.393982 145.456 0.393982 144.554C0.393982 142.396 3.74598 139.488 6.91898 138.892C9.16698 138.47 12.448 136.452 15.762 133.451C18.66 130.826 25.553 125.254 31.081 121.068C36.609 116.882 41.406 112.743 41.741 111.87C42.075 110.998 42.073 108.27 41.736 105.807L41.122 101.331L45.008 101.317C47.145 101.31 49.866 101.043 51.054 100.724C53.062 100.186 53.265 100.611 53.919 106.715ZM248.961 117.381C248.961 134.204 249.77 137.181 254.925 139.316C259.176 141.077 267.404 140.119 271.025 137.442C273.929 135.295 273.961 135.293 273.961 137.301C273.961 139.056 274.605 139.331 278.711 139.332L283.461 139.333L283.168 120.832L282.876 102.331H278.418H273.961V114.758C273.961 126.993 273.92 127.218 271.326 129.258C268.396 131.563 262.086 132.056 260.161 130.131C259.348 129.318 258.961 124.642 258.961 115.631V102.331H253.961H248.961V117.381ZM316.709 111.867C319.944 114.133 321.496 120.179 320.004 124.7C317.928 130.991 312.21 133.062 305.911 129.805C303.077 128.339 302.961 128.009 302.961 121.378C302.961 115.113 303.204 114.285 305.596 112.404C308.709 109.955 313.639 109.717 316.709 111.867Z" fill="white"/>
</svg>
