<svg width="458" height="148" viewBox="0 0 458 148" fill="none" xmlns="http://www.w3.org/2000/svg">
<path fill-rule="evenodd" clip-rule="evenodd" d="M108.262 2.28896C105.986 3.67696 104.736 5.45295 103.93 8.44495C102.423 14.044 103.189 17.434 108.495 28.636C114.243 40.768 114.971 45.603 111.764 50.324C110.459 52.245 108.636 53.962 107.714 54.14C106.793 54.318 101.858 52.79 96.7499 50.745C77.3149 42.967 57.8979 45.512 40.6269 58.101C35.8819 61.56 35.6079 61.626 25.6269 61.727C17.1279 61.814 14.6829 62.214 10.7179 64.167C2.77986 68.076 -1.03314 75.95 0.881855 84.476C2.28185 90.705 5.52286 91.782 7.80386 86.776C9.14986 83.823 10.9609 83.568 10.9609 86.331C10.9609 88.847 12.0389 88.842 17.0209 86.301C20.5239 84.513 21.0719 84.457 21.5999 85.831C21.9289 86.69 21.9349 88.711 21.6129 90.323C21.2899 91.935 21.3999 93.484 21.8569 93.767C22.3139 94.049 25.7799 93.423 29.5599 92.375C33.3399 91.326 36.6529 90.69 36.9229 90.96C37.1929 91.23 35.6689 92.916 33.5349 94.707C29.6749 97.948 29.6409 98.0399 26.3579 114.397C23.1329 130.458 22.9779 130.896 19.5099 133.678C17.5579 135.244 15.9609 137.204 15.9609 138.034C15.9609 138.864 14.8359 140.428 13.4609 141.51C10.6279 143.738 10.2159 146.108 12.5089 146.988C14.3689 147.702 25.5419 142.202 29.2879 138.729C30.8979 137.236 31.9699 135.172 31.9829 133.541C32.0219 128.739 37.7219 108.253 39.5949 106.183C40.5929 105.08 44.2769 102.574 47.7819 100.614C55.6119 96.235 62.4149 95.528 80.2099 97.243C104.964 99.628 114.961 94.059 114.961 77.882C114.961 72.375 115.348 71.297 119.466 65.324C127.6 53.526 127.903 42.519 120.425 30.404C113.549 19.264 113.929 12.326 121.474 11.276C123.667 10.971 126.555 10.124 127.891 9.39495C130.224 8.12095 130.246 8.01296 128.45 6.69896C127.421 5.94696 125.832 5.33096 124.919 5.33096C124.006 5.33096 121.143 4.20596 118.557 2.83096C112.905 -0.174045 112.35 -0.203045 108.262 2.28896ZM294.532 17.902C292.538 19.897 292.499 24.703 294.464 26.334C296.395 27.936 300.527 27.936 302.458 26.334C304.423 24.703 304.384 19.897 302.39 17.902C301.525 17.038 299.757 16.331 298.461 16.331C297.165 16.331 295.397 17.038 294.532 17.902ZM173.711 17.898C173.299 18.319 172.961 30.106 172.961 44.089V69.514L187.711 69.151C201.495 68.811 202.806 68.608 207.72 66.038C210.732 64.463 214.217 61.58 215.875 59.291C221.399 51.666 222.276 39.788 217.942 31.293C215.549 26.603 208.718 20.673 204.026 19.214C199.763 17.888 174.781 16.803 173.711 17.898ZM270.961 40.641C270.961 62.713 271.079 64.211 273.004 66.659C275.546 69.89 280.821 70.989 286.14 69.396C289.059 68.521 289.968 67.793 289.539 66.673C289.216 65.833 288.693 64.112 288.376 62.849C287.916 61.016 287.161 60.582 284.631 60.692L281.461 60.831L280.961 39.331L280.461 17.831L275.711 17.526L270.961 17.221V40.641ZM200.29 28.695C207.461 31.691 211.551 40.982 209.044 48.578C208.428 50.446 206.334 53.515 204.392 55.398C201.069 58.619 200.391 58.842 192.911 59.182L184.961 59.543V43.437V27.331H190.993C194.311 27.331 198.494 27.945 200.29 28.695ZM234.855 34.146C221.649 42.628 223.581 62.678 238.193 68.783C244.461 71.402 254.329 70.339 258.873 66.556L260.945 64.831L258.93 61.7L256.916 58.57L253.227 60.45C251.198 61.485 248.464 62.331 247.151 62.331C243.486 62.331 238.363 59.508 237.134 56.811L236.029 54.387L249.745 54.109L263.461 53.831L263.215 49.05C262.664 38.312 256.537 32.082 245.983 31.529C240.151 31.223 238.974 31.5 234.855 34.146ZM361.442 32.725C355.45 35.336 349.972 43.983 349.972 50.831C349.972 58.888 356.325 67.273 363.997 69.343C369.319 70.778 376.223 70.127 381.284 67.714C385.453 65.726 385.695 64.844 383.023 61.367C381.245 59.054 380.962 58.992 378.394 60.367C373.946 62.747 366.591 62.272 363.542 59.407C358.664 54.825 359.726 54.331 374.461 54.331H387.961L387.955 51.081C387.941 42.93 383.512 35.295 377.29 32.695C373.194 30.984 365.404 30.998 361.442 32.725ZM408.601 33.801C405.149 36.143 404.961 36.169 404.961 34.301C404.961 32.604 404.269 32.331 399.961 32.331H394.961V50.831V69.331H399.961H404.961V56.986C404.961 42.89 405.589 41.593 412.883 40.615C416.948 40.069 416.961 40.053 416.961 35.699C416.961 31.775 416.721 31.331 414.601 31.331C413.302 31.331 410.602 32.442 408.601 33.801ZM293.961 50.831V69.331H298.961H303.961V50.831V32.331H298.961H293.961V50.831ZM309.272 35.581C310.008 37.368 313.277 45.709 316.536 54.115L322.461 69.398L327.934 69.115L333.407 68.831L340.581 50.581L347.756 32.331H342.511H337.265L332.966 44.081C330.602 50.544 328.396 56.143 328.064 56.524C327.732 56.906 325.44 51.618 322.97 44.774L318.48 32.331H313.207H307.934L309.272 35.581ZM421.967 44.581C421.973 59.564 422.989 63.747 427.272 66.439C431.528 69.113 439.742 68.609 444.071 65.408C445.747 64.169 447.362 63.399 447.66 63.696C449.049 65.086 446.659 71.407 443.85 73.771C440.131 76.901 435.84 77.073 430.423 74.312C426.652 72.389 426.399 72.377 425.138 74.062C422.056 78.18 421.93 79.082 424.231 80.563C433.797 86.725 448.583 84.984 454.402 77.011C456.298 74.413 456.485 72.537 456.767 53.261L457.073 32.331H452.017H446.961V44.274C446.961 55.483 446.824 56.313 444.738 57.774C441.67 59.924 435.675 59.777 433.616 57.502C432.275 56.02 431.961 53.459 431.961 44.002V32.331H426.961H421.961L421.967 44.581ZM251.326 41.404C252.775 42.543 253.961 44.343 253.961 45.404C253.961 47.164 253.181 47.331 244.961 47.331C240.011 47.331 235.961 47.084 235.961 46.781C235.961 45.409 239.048 40.46 240.19 40C243.312 38.744 248.829 39.439 251.326 41.404ZM376.379 42.416C377.806 44.112 378.72 45.912 378.409 46.416C378.098 46.919 374.045 47.331 369.402 47.331C362.153 47.331 360.961 47.093 360.961 45.645C360.961 42.314 365.017 39.331 369.546 39.331C373.052 39.331 374.231 39.863 376.379 42.416ZM188.955 88.265C178.031 91.588 169.961 102.451 169.961 113.831C169.961 123.198 176.126 133.332 184.393 137.553C190.057 140.446 200.637 141.108 206.345 138.928C210.081 137.502 218.963 130.077 218.96 128.384C218.96 128.08 216.869 126.862 214.313 125.679L209.667 123.526L207.281 126.362C200.831 134.028 188.331 131.748 183.282 121.985C182.398 120.276 181.675 116.544 181.675 113.691C181.675 104.99 186.792 98.6999 194.737 97.6339C200.325 96.8849 203.263 97.787 206.823 101.347L209.84 104.364L214.344 102.176C219.347 99.745 219.343 99.009 214.292 93.906C209.963 89.531 204.327 87.366 197.461 87.439C194.161 87.474 190.333 87.846 188.955 88.265ZM226.16 111.919L226.461 135.507L229.267 137.919C232.44 140.647 240.268 141.29 243.301 139.072C244.815 137.964 244.869 137.392 243.742 134.322C242.668 131.394 241.977 130.831 239.461 130.831H236.461L236.191 109.581L235.921 88.331H230.89H225.858L226.16 111.919ZM292.961 113.831V139.331H297.961C302.319 139.331 302.961 139.07 302.961 137.301C302.961 135.287 302.983 135.288 305.857 137.412C313.026 142.713 323.943 140.097 328.158 132.068C331.214 126.247 331.328 115.484 328.392 109.888C325.5 104.375 322.012 102.081 315.752 101.575C311.298 101.215 309.868 101.553 306.711 103.709L302.961 106.271V97.301V88.331H297.961H292.961V113.831ZM79.4359 106.715C78.4129 116.27 78.9079 117.3 86.6709 121.761C101.833 130.476 111.693 137.547 113.083 140.704C114.042 142.88 115.373 144.023 117.461 144.463C121.871 145.391 132.961 145.456 132.961 144.554C132.961 142.396 129.609 139.488 126.436 138.892C124.188 138.47 120.907 136.452 117.593 133.451C114.695 130.826 107.802 125.254 102.274 121.068C96.7459 116.882 91.9489 112.743 91.6139 111.87C91.2799 110.998 91.2819 108.27 91.6189 105.807L92.2329 101.331L88.3469 101.317C86.2099 101.31 83.4888 101.043 82.3008 100.724C80.2929 100.186 80.0899 100.611 79.4359 106.715ZM248.961 117.381C248.961 134.204 249.77 137.181 254.925 139.316C259.176 141.077 267.404 140.119 271.025 137.442C273.929 135.295 273.961 135.293 273.961 137.301C273.961 139.056 274.605 139.331 278.711 139.332L283.461 139.333L283.168 120.832L282.876 102.331H278.418H273.961V114.758C273.961 126.993 273.92 127.218 271.326 129.258C268.396 131.563 262.086 132.056 260.161 130.131C259.348 129.318 258.961 124.642 258.961 115.631V102.331H253.961H248.961V117.381ZM316.709 111.867C319.944 114.133 321.496 120.179 320.004 124.7C317.928 130.991 312.21 133.062 305.911 129.805C303.077 128.339 302.961 128.009 302.961 121.378C302.961 115.113 303.204 114.285 305.596 112.404C308.709 109.955 313.639 109.717 316.709 111.867Z" fill="white"/>
</svg>
