<svg width="457" height="147" viewBox="0 0 457 147" fill="none" xmlns="http://www.w3.org/2000/svg">
<path fill-rule="evenodd" clip-rule="evenodd" d="M107.868 1.79594C105.592 3.18394 104.342 4.95994 103.536 7.95194C102.029 13.5509 102.795 16.9409 108.101 28.1429C113.849 40.2749 114.577 45.1099 111.37 49.8309C110.065 51.7519 108.242 53.4689 107.32 53.6469C106.399 53.8249 101.464 52.2969 96.3559 50.2519C76.9209 42.4739 57.5039 45.0189 40.2329 57.6079C35.4879 61.0669 35.2139 61.1329 25.2329 61.2339C16.7339 61.3209 14.2889 61.7209 10.3239 63.6739C2.38593 67.5829 -1.42707 75.4569 0.487934 83.9829C1.88793 90.2119 5.12894 91.2889 7.40993 86.2829C8.75593 83.3299 10.5669 83.0749 10.5669 85.8379C10.5669 88.3539 11.6449 88.3489 16.6269 85.8079C20.1299 84.0199 20.6779 83.9639 21.2059 85.3379C21.5349 86.1969 21.5409 88.2179 21.2189 89.8299C20.8959 91.4419 21.0059 92.9909 21.4629 93.2739C21.9199 93.5559 25.3859 92.9299 29.1659 91.8819C32.9459 90.8329 36.2589 90.1969 36.5289 90.4669C36.7989 90.7369 35.2749 92.423 33.1409 94.214C29.2809 97.455 29.2469 97.5469 25.9639 113.904C22.7389 129.965 22.5839 130.403 19.1159 133.185C17.1639 134.751 15.5669 136.711 15.5669 137.541C15.5669 138.371 14.4419 139.935 13.0669 141.017C10.2339 143.245 9.82193 145.615 12.1149 146.495C13.9749 147.209 25.1479 141.709 28.8939 138.236C30.5039 136.743 31.5759 134.679 31.5889 133.048C31.6279 128.246 37.3279 107.76 39.2009 105.69C40.1989 104.587 43.8829 102.081 47.3879 100.121C55.2179 95.7419 62.0209 95.0349 79.8159 96.7499C104.57 99.1349 114.567 93.5659 114.567 77.3889C114.567 71.8819 114.954 70.8039 119.072 64.8309C127.206 53.0329 127.509 42.0259 120.031 29.9109C113.155 18.7709 113.535 11.8329 121.08 10.7829C123.273 10.4779 126.161 9.63094 127.497 8.90194C129.83 7.62794 129.852 7.51994 128.056 6.20594C127.027 5.45394 125.438 4.83794 124.525 4.83794C123.612 4.83794 120.749 3.71294 118.163 2.33794C112.511 -0.667057 111.956 -0.696056 107.868 1.79594ZM294.138 17.4089C292.144 19.4039 292.105 24.2099 294.07 25.8409C296.001 27.4429 300.133 27.4429 302.064 25.8409C304.029 24.2099 303.99 19.4039 301.996 17.4089C301.131 16.5449 299.363 15.8379 298.067 15.8379C296.771 15.8379 295.003 16.5449 294.138 17.4089ZM173.317 17.4049C172.905 17.8259 172.567 29.6129 172.567 43.5959V69.0209L187.317 68.6579C201.101 68.3179 202.412 68.1149 207.326 65.5449C210.338 63.9699 213.823 61.0869 215.481 58.7979C221.005 51.1729 221.882 39.2949 217.548 30.7999C215.155 26.1099 208.324 20.1799 203.632 18.7209C199.369 17.3949 174.387 16.3099 173.317 17.4049ZM270.567 40.1479C270.567 62.2199 270.685 63.7179 272.61 66.1659C275.152 69.3969 280.427 70.4959 285.746 68.9029C288.665 68.0279 289.574 67.2999 289.145 66.1799C288.822 65.3399 288.299 63.6189 287.982 62.3559C287.522 60.5229 286.767 60.0889 284.237 60.1989L281.067 60.3379L280.567 38.8379L280.067 17.3379L275.317 17.0329L270.567 16.7279V40.1479ZM199.896 28.2019C207.067 31.1979 211.157 40.4889 208.65 48.0849C208.034 49.9529 205.94 53.0219 203.998 54.9049C200.675 58.1259 199.997 58.3489 192.517 58.6889L184.567 59.0499V42.9439V26.8379H190.599C193.917 26.8379 198.1 27.4519 199.896 28.2019ZM234.461 33.6529C221.255 42.1349 223.187 62.1849 237.799 68.2899C244.067 70.9089 253.935 69.8459 258.479 66.0629L260.551 64.3379L258.536 61.2069L256.522 58.0769L252.833 59.9569C250.804 60.9919 248.07 61.8379 246.757 61.8379C243.092 61.8379 237.969 59.0149 236.74 56.3179L235.635 53.8939L249.351 53.6159L263.067 53.3379L262.821 48.5569C262.27 37.8189 256.143 31.5889 245.589 31.0359C239.757 30.7299 238.58 31.0069 234.461 33.6529ZM361.048 32.2319C355.056 34.8429 349.578 43.4899 349.578 50.3379C349.578 58.3949 355.931 66.7799 363.603 68.8499C368.925 70.2849 375.829 69.6339 380.89 67.2209C385.059 65.2329 385.301 64.3509 382.629 60.8739C380.851 58.5609 380.568 58.4989 378 59.8739C373.552 62.2539 366.197 61.7789 363.148 58.9139C358.27 54.3319 359.332 53.8379 374.067 53.8379H387.567L387.561 50.5879C387.547 42.4369 383.118 34.8019 376.896 32.2019C372.8 30.4909 365.01 30.5049 361.048 32.2319ZM408.207 33.3079C404.755 35.6499 404.567 35.6759 404.567 33.8079C404.567 32.1109 403.875 31.8379 399.567 31.8379H394.567V50.3379V68.8379H399.567H404.567V56.4929C404.567 42.3969 405.195 41.0999 412.489 40.1219C416.554 39.5759 416.567 39.5599 416.567 35.2059C416.567 31.2819 416.327 30.8379 414.207 30.8379C412.908 30.8379 410.208 31.9489 408.207 33.3079ZM293.567 50.3379V68.8379H298.567H303.567V50.3379V31.8379H298.567H293.567V50.3379ZM308.878 35.0879C309.614 36.8749 312.883 45.2159 316.142 53.6219L322.067 68.9049L327.54 68.6219L333.013 68.3379L340.187 50.0879L347.362 31.8379H342.117H336.871L332.572 43.5879C330.208 50.0509 328.002 55.6499 327.67 56.0309C327.338 56.4129 325.046 51.1249 322.576 44.2809L318.086 31.8379H312.813H307.54L308.878 35.0879ZM421.573 44.0879C421.579 59.0709 422.595 63.2539 426.878 65.9459C431.134 68.6199 439.348 68.1159 443.677 64.9149C445.353 63.6759 446.968 62.9059 447.266 63.2029C448.655 64.5929 446.265 70.9139 443.456 73.2779C439.737 76.4079 435.446 76.5799 430.029 73.8189C426.258 71.8959 426.005 71.8839 424.744 73.5689C421.662 77.6869 421.536 78.5889 423.837 80.0699C433.403 86.2319 448.189 84.4909 454.008 76.5179C455.904 73.9199 456.091 72.0439 456.373 52.7679L456.679 31.8379H451.623H446.567V43.7809C446.567 54.9899 446.43 55.8199 444.344 57.2809C441.276 59.4309 435.281 59.2839 433.222 57.0089C431.881 55.5269 431.567 52.9659 431.567 43.5089V31.8379H426.567H421.567L421.573 44.0879ZM250.932 40.9109C252.381 42.0499 253.567 43.8499 253.567 44.9109C253.567 46.6709 252.787 46.8379 244.567 46.8379C239.617 46.8379 235.567 46.5909 235.567 46.2879C235.567 44.9159 238.654 39.9669 239.796 39.5069C242.918 38.2509 248.435 38.9459 250.932 40.9109ZM375.985 41.9229C377.412 43.6189 378.326 45.4189 378.015 45.9229C377.704 46.4259 373.651 46.8379 369.008 46.8379C361.759 46.8379 360.567 46.5999 360.567 45.1519C360.567 41.8209 364.623 38.8379 369.152 38.8379C372.658 38.8379 373.837 39.3699 375.985 41.9229ZM188.561 87.7719C177.637 91.0949 169.567 101.958 169.567 113.338C169.567 122.705 175.732 132.839 183.999 137.06C189.663 139.953 200.243 140.615 205.951 138.435C209.687 137.009 218.569 129.584 218.566 127.891C218.566 127.587 216.475 126.369 213.919 125.186L209.273 123.033L206.887 125.869C200.437 133.535 187.937 131.255 182.888 121.492C182.004 119.783 181.281 116.051 181.281 113.198C181.281 104.497 186.398 98.2069 194.343 97.1409C199.931 96.3919 202.869 97.294 206.429 100.854L209.446 103.871L213.95 101.683C218.953 99.2519 218.949 98.5159 213.898 93.4129C209.569 89.0379 203.933 86.8729 197.067 86.9459C193.767 86.9809 189.939 87.3529 188.561 87.7719ZM225.766 111.426L226.067 135.014L228.873 137.426C232.046 140.154 239.874 140.797 242.907 138.579C244.421 137.471 244.475 136.899 243.348 133.829C242.274 130.901 241.583 130.338 239.067 130.338H236.067L235.797 109.088L235.527 87.8379H230.496H225.464L225.766 111.426ZM292.567 113.338V138.838H297.567C301.925 138.838 302.567 138.577 302.567 136.808C302.567 134.794 302.589 134.795 305.463 136.919C312.632 142.22 323.549 139.604 327.764 131.575C330.82 125.754 330.934 114.991 327.998 109.395C325.106 103.882 321.618 101.588 315.358 101.082C310.904 100.722 309.474 101.06 306.317 103.216L302.567 105.778V96.8079V87.8379H297.567H292.567V113.338ZM79.0419 106.222C78.0189 115.777 78.5139 116.807 86.2769 121.268C101.439 129.983 111.299 137.054 112.689 140.211C113.648 142.387 114.979 143.53 117.067 143.97C121.477 144.898 132.567 144.963 132.567 144.061C132.567 141.903 129.215 138.995 126.042 138.399C123.794 137.977 120.513 135.959 117.199 132.958C114.301 130.333 107.408 124.761 101.88 120.575C96.3519 116.389 91.5549 112.25 91.2199 111.377C90.8859 110.505 90.8879 107.777 91.2249 105.314L91.8389 100.838L87.9529 100.824C85.8159 100.817 83.0949 100.55 81.9069 100.231C79.8989 99.6929 79.6959 100.118 79.0419 106.222ZM248.567 116.888C248.567 133.711 249.376 136.688 254.531 138.823C258.782 140.584 267.01 139.626 270.631 136.949C273.535 134.802 273.567 134.8 273.567 136.808C273.567 138.563 274.211 138.838 278.317 138.839L283.067 138.84L282.774 120.339L282.482 101.838H278.024H273.567V114.265C273.567 126.5 273.526 126.725 270.932 128.765C268.002 131.07 261.692 131.563 259.767 129.638C258.954 128.825 258.567 124.149 258.567 115.138V101.838H253.567H248.567V116.888ZM316.315 111.374C319.55 113.64 321.102 119.686 319.61 124.207C317.534 130.498 311.816 132.569 305.517 129.312C302.683 127.846 302.567 127.516 302.567 120.885C302.567 114.62 302.81 113.792 305.202 111.911C308.315 109.462 313.245 109.224 316.315 111.374Z" fill="#2E2F33"/>
</svg>
