<svg width="36" height="36" viewBox="0 0 36 36" fill="none" xmlns="http://www.w3.org/2000/svg">
<rect width="36" height="36" fill="#EE8208"/>
<path opacity="0.3" d="M17.2917 12.7421L18.4275 16.5H21.835L19.0921 18.4575L20.2159 22.0946L17.2917 19.8712L14.3675 22.0946L15.4913 18.4575L12.7484 16.5H16.1559L17.2917 12.7421Z" fill="white"/>
<path d="M17.2916 12.7421L18.4275 16.5H21.835L19.0921 18.4575L20.2158 22.0946L17.2916 19.8712L14.3675 22.0946L15.4912 18.4575L12.7483 16.5H16.1558L17.2916 12.7421ZM14.3675 14.0833H5.20831L12.6637 19.4121L9.83623 28.5833L17.2916 22.9162L24.7591 28.5833L21.9196 19.4121L29.375 14.0833H20.2158L17.2916 4.41666L14.3675 14.0833ZM29.81 28.5833L27.5625 21.3212L32.6133 17.7083H28.4566L24.735 20.3667L26.4991 26.07L29.81 28.5833ZM24.5416 11.6667L22.3425 4.41666L21.0858 8.58541L22.0162 11.6667H24.5416Z" fill="white"/>
</svg>
