<svg width="39" height="39" viewBox="0 0 39 39" fill="none" xmlns="http://www.w3.org/2000/svg">
<path d="M38.0446 24.4995L35.1102 22.1244C35.249 21.3185 35.3207 20.4957 35.3207 19.6729C35.3207 18.85 35.249 18.0272 35.1102 17.2214L38.0446 14.8462C38.2659 14.6668 38.4244 14.4279 38.4988 14.1612C38.5732 13.8945 38.5601 13.6127 38.4613 13.3532L38.4209 13.243C37.6131 11.1054 36.4034 9.1239 34.8503 7.39412L34.7697 7.30505C34.5813 7.09532 34.3302 6.94456 34.0495 6.87263C33.7687 6.8007 33.4716 6.81099 33.1972 6.90212L29.5549 8.12788C28.2108 7.0845 26.71 6.26167 25.0882 5.68485L24.3849 2.07969C24.3318 1.80842 24.1928 1.55886 23.9863 1.36416C23.7799 1.16946 23.5157 1.03884 23.229 0.989657L23.108 0.96845C20.7739 0.569761 18.3188 0.569761 15.9847 0.96845L15.8638 0.989657C15.577 1.03884 15.3129 1.16946 15.1064 1.36416C14.9 1.55886 14.761 1.80842 14.7079 2.07969L14.0001 5.70181C12.3912 6.27876 10.893 7.10115 9.56478 8.13636L5.8956 6.90212C5.62127 6.81026 5.3239 6.79961 5.04302 6.87158C4.76214 6.94355 4.51104 7.09474 4.3231 7.30505L4.24246 7.39412C2.69121 9.12512 1.48173 11.1063 0.671838 13.243L0.631517 13.3532C0.429914 13.8834 0.595677 14.4772 1.04816 14.8462L4.01845 17.2468C3.87957 18.0442 3.81237 18.8585 3.81237 19.6686C3.81237 20.483 3.87957 21.2973 4.01845 22.0905L1.04816 24.4911C0.826829 24.6704 0.668417 24.9094 0.593992 25.1761C0.519567 25.4427 0.532655 25.7246 0.631517 25.984L0.671838 26.0943C1.48273 28.232 2.68339 30.2042 4.24246 31.9431L4.3231 32.0322C4.5115 32.2419 4.76261 32.3927 5.04332 32.4646C5.32404 32.5366 5.62118 32.5263 5.8956 32.4351L9.56478 31.2009C10.8998 32.24 12.3917 33.0629 14.0001 33.6355L14.7079 37.2576C14.761 37.5288 14.9 37.7784 15.1064 37.9731C15.3129 38.1678 15.577 38.2984 15.8638 38.3476L15.9847 38.3688C18.3403 38.7696 20.7525 38.7696 23.108 38.3688L23.229 38.3476C23.5157 38.2984 23.7799 38.1678 23.9863 37.9731C24.1928 37.7784 24.3318 37.5288 24.3849 37.2576L25.0882 33.6524C26.7094 33.0771 28.2187 32.2516 29.5549 31.2094L33.1972 32.4351C33.4715 32.527 33.7689 32.5377 34.0498 32.4657C34.3306 32.3937 34.5817 32.2425 34.7697 32.0322L34.8503 31.9431C36.4094 30.1999 37.61 28.232 38.4209 26.0943L38.4613 25.984C38.6629 25.4623 38.4971 24.8685 38.0446 24.4995ZM31.9293 17.7218C32.0413 18.3623 32.0996 19.0197 32.0996 19.6771C32.0996 20.3345 32.0413 20.9919 31.9293 21.6324L31.6336 23.3332L34.9802 26.0434C34.4729 27.1499 33.8325 28.1974 33.0717 29.1651L28.9142 27.7696L27.5075 28.8639C26.4367 29.6952 25.245 30.3484 23.9548 30.8065L22.2479 31.413L21.4459 35.5271C20.1806 35.6628 18.9032 35.6628 17.6379 35.5271L16.8359 31.4045L15.1425 30.7895C13.8657 30.3314 12.6784 29.6783 11.6167 28.8512L10.2099 27.7527L6.02553 29.1608C5.26391 28.1895 4.62774 27.1419 4.11701 26.0392L7.49947 23.3035L7.20827 21.6069C7.10074 20.975 7.0425 20.3218 7.0425 19.6771C7.0425 19.0282 7.09626 18.3793 7.20827 17.7473L7.49947 16.0507L4.11701 13.3151C4.62326 12.2081 5.26391 11.1647 6.02553 10.1934L10.2099 11.6016L11.6167 10.503C12.6784 9.67597 13.8657 9.0228 15.1425 8.56474L16.8404 7.95822L17.6424 3.83561C18.9013 3.69989 20.187 3.69989 21.4504 3.83561L22.2524 7.94974L23.9593 8.55625C25.245 9.01432 26.4412 9.66749 27.512 10.4988L28.9187 11.5931L33.0762 10.1977C33.8378 11.1689 34.474 12.2166 34.9847 13.3193L31.6381 16.0295L31.9293 17.7218ZM19.5509 11.7882C15.1962 11.7882 11.6659 15.1304 11.6659 19.253C11.6659 23.3756 15.1962 26.7178 19.5509 26.7178C23.9055 26.7178 27.4358 23.3756 27.4358 19.253C27.4358 15.1304 23.9055 11.7882 19.5509 11.7882ZM23.0991 22.6121C22.6337 23.054 22.0806 23.4044 21.4717 23.6431C20.8628 23.8819 20.21 24.0043 19.5509 24.0033C18.2113 24.0033 16.9524 23.5071 16.0026 22.6121C15.5359 22.1716 15.1658 21.648 14.9136 21.0715C14.6615 20.495 14.5322 19.877 14.5332 19.253C14.5332 17.9848 15.0574 16.793 16.0026 15.8938C16.9524 14.9946 18.2113 14.5026 19.5509 14.5026C20.8904 14.5026 22.1493 14.9946 23.0991 15.8938C23.5658 16.3344 23.9359 16.858 24.1881 17.4345C24.4403 18.011 24.5696 18.629 24.5686 19.253C24.5686 20.5211 24.0444 21.713 23.0991 22.6121Z" fill="black"/>
</svg>
