<svg width="378" height="378" viewBox="0 0 378 378" fill="none" xmlns="http://www.w3.org/2000/svg">
<rect width="378" height="378" rx="30.3719" fill="url(#paint0_linear_1_304)"/>
<rect width="378" height="378" rx="30.3719" fill="url(#paint1_linear_1_304)"/>
<path d="M93.642 208.633V199.569L111.418 181.001C114.938 177.305 117.637 174.371 119.514 172.201C121.45 169.971 122.799 168.065 123.562 166.481C124.325 164.897 124.706 163.283 124.706 161.641C124.706 158.883 123.826 156.713 122.066 155.129C120.365 153.545 118.165 152.753 115.466 152.753C112.65 152.753 110.215 153.574 108.162 155.217C106.109 156.801 104.613 159.147 103.674 162.257L93.202 159.001C93.906 155.539 95.3434 152.547 97.514 150.025C99.6847 147.443 102.325 145.478 105.434 144.129C108.602 142.721 111.946 142.017 115.466 142.017C119.69 142.017 123.386 142.779 126.554 144.305C129.781 145.83 132.274 147.971 134.034 150.729C135.853 153.486 136.762 156.713 136.762 160.409C136.762 162.755 136.322 165.073 135.442 167.361C134.562 169.649 133.242 171.995 131.482 174.401C129.722 176.747 127.434 179.387 124.618 182.321L109.218 198.513H137.642V208.633H93.642ZM165.598 209.689C162.137 209.689 158.822 209.043 155.654 207.753C152.545 206.462 149.846 204.643 147.558 202.297C145.329 199.891 143.803 197.046 142.982 193.761L153.366 190.065C154.363 193.057 155.977 195.286 158.206 196.753C160.435 198.161 162.899 198.865 165.598 198.865C167.827 198.865 169.793 198.395 171.494 197.457C173.254 196.459 174.603 195.11 175.542 193.409C176.481 191.649 176.95 189.625 176.95 187.337C176.95 185.049 176.451 183.054 175.454 181.353C174.515 179.651 173.195 178.331 171.494 177.393C169.793 176.395 167.827 175.897 165.598 175.897C163.31 175.897 161.227 176.395 159.35 177.393C157.531 178.39 156.211 179.827 155.39 181.705L145.622 179.505L150.814 143.073H186.542V153.193H155.566L160.054 148.001L156.358 175.457L152.926 172.641C154.569 170.235 156.563 168.475 158.91 167.361C161.315 166.246 164.219 165.689 167.622 165.689C171.963 165.689 175.718 166.627 178.886 168.505C182.113 170.382 184.606 172.934 186.366 176.161C188.126 179.387 189.006 183.113 189.006 187.337C189.006 191.561 187.979 195.374 185.926 198.777C183.873 202.179 181.086 204.849 177.566 206.785C174.046 208.721 170.057 209.689 165.598 209.689Z" fill="white"/>
<path d="M203.474 158L225.822 130.435H231.002L208.654 158H203.474ZM207.766 144.421C206.409 144.421 205.176 144.1 204.066 143.459C202.981 142.793 202.117 141.917 201.476 140.832C200.835 139.747 200.514 138.538 200.514 137.206C200.514 135.874 200.835 134.665 201.476 133.58C202.117 132.47 202.981 131.594 204.066 130.953C205.176 130.312 206.409 129.991 207.766 129.991C209.147 129.991 210.381 130.312 211.466 130.953C212.551 131.594 213.415 132.47 214.056 133.58C214.697 134.665 215.018 135.874 215.018 137.206C215.018 138.538 214.697 139.747 214.056 140.832C213.415 141.917 212.551 142.793 211.466 143.459C210.381 144.1 209.147 144.421 207.766 144.421ZM207.766 140.684C208.506 140.684 209.123 140.524 209.616 140.203C210.109 139.858 210.479 139.426 210.726 138.908C210.997 138.365 211.133 137.798 211.133 137.206C211.133 136.589 210.997 136.022 210.726 135.504C210.479 134.986 210.109 134.554 209.616 134.209C209.123 133.864 208.506 133.691 207.766 133.691C207.075 133.691 206.471 133.864 205.953 134.209C205.46 134.554 205.077 134.998 204.806 135.541C204.535 136.059 204.399 136.614 204.399 137.206C204.399 137.773 204.535 138.328 204.806 138.871C205.077 139.414 205.46 139.858 205.953 140.203C206.471 140.524 207.075 140.684 207.766 140.684ZM226.562 158.444C225.205 158.444 223.972 158.123 222.862 157.482C221.777 156.816 220.913 155.94 220.272 154.855C219.631 153.77 219.31 152.561 219.31 151.229C219.31 149.897 219.631 148.688 220.272 147.603C220.913 146.493 221.777 145.617 222.862 144.976C223.972 144.335 225.205 144.014 226.562 144.014C227.943 144.014 229.177 144.335 230.262 144.976C231.347 145.617 232.211 146.493 232.852 147.603C233.493 148.688 233.814 149.897 233.814 151.229C233.814 152.561 233.493 153.77 232.852 154.855C232.211 155.94 231.347 156.816 230.262 157.482C229.177 158.123 227.943 158.444 226.562 158.444ZM226.562 154.707C227.277 154.707 227.882 154.547 228.375 154.226C228.893 153.881 229.275 153.449 229.522 152.931C229.793 152.388 229.929 151.821 229.929 151.229C229.929 150.612 229.793 150.045 229.522 149.527C229.275 149.009 228.893 148.577 228.375 148.232C227.882 147.887 227.277 147.714 226.562 147.714C225.871 147.714 225.267 147.887 224.749 148.232C224.256 148.577 223.873 149.021 223.602 149.564C223.331 150.082 223.195 150.637 223.195 151.229C223.195 151.796 223.331 152.351 223.602 152.894C223.873 153.437 224.256 153.881 224.749 154.226C225.267 154.547 225.871 154.707 226.562 154.707Z" fill="white"/>
<path d="M215.855 208.079C213.832 208.079 211.945 207.721 210.194 207.006C208.442 206.291 206.913 205.292 205.606 204.009C204.298 202.726 203.275 201.222 202.535 199.495C201.819 197.744 201.462 195.857 201.462 193.834C201.462 191.787 201.819 189.9 202.535 188.173C203.25 186.446 204.261 184.942 205.569 183.659C206.876 182.376 208.405 181.39 210.157 180.699C211.908 179.984 213.807 179.626 215.855 179.626C217.902 179.626 219.801 179.984 221.553 180.699C223.304 181.414 224.833 182.413 226.141 183.696C227.448 184.954 228.459 186.446 229.175 188.173C229.915 189.9 230.285 191.787 230.285 193.834C230.285 195.857 229.915 197.744 229.175 199.495C228.435 201.222 227.411 202.726 226.104 204.009C224.796 205.292 223.267 206.291 221.516 207.006C219.789 207.721 217.902 208.079 215.855 208.079ZM215.855 203.491C217.211 203.491 218.457 203.257 219.592 202.788C220.726 202.295 221.713 201.616 222.552 200.753C223.415 199.89 224.069 198.866 224.513 197.682C224.981 196.498 225.216 195.215 225.216 193.834C225.216 192.453 224.981 191.182 224.513 190.023C224.069 188.839 223.415 187.815 222.552 186.952C221.713 186.064 220.726 185.386 219.592 184.917C218.457 184.448 217.211 184.214 215.855 184.214C214.523 184.214 213.289 184.448 212.155 184.917C211.02 185.386 210.021 186.064 209.158 186.952C208.319 187.815 207.665 188.839 207.197 190.023C206.728 191.182 206.494 192.453 206.494 193.834C206.494 195.215 206.728 196.498 207.197 197.682C207.665 198.866 208.319 199.89 209.158 200.753C210.021 201.616 211.02 202.295 212.155 202.788C213.289 203.257 214.523 203.491 215.855 203.491ZM233.649 207.635V180.07H252.038V184.51H238.681V192.132H250.373V196.572H238.681V207.635H233.649ZM254.219 207.635V180.07H272.608V184.51H259.251V192.132H270.943V196.572H259.251V207.635H254.219Z" fill="white"/>
<path d="M119.79 94V82.825H121.56V94H119.79ZM123.262 94V85.885H124.882V87.475L124.687 87.265C124.887 86.755 125.207 86.37 125.647 86.11C126.087 85.84 126.597 85.705 127.177 85.705C127.777 85.705 128.307 85.835 128.767 86.095C129.227 86.355 129.587 86.715 129.847 87.175C130.107 87.635 130.237 88.165 130.237 88.765V94H128.557V89.215C128.557 88.805 128.482 88.46 128.332 88.18C128.182 87.89 127.967 87.67 127.687 87.52C127.417 87.36 127.107 87.28 126.757 87.28C126.407 87.28 126.092 87.36 125.812 87.52C125.542 87.67 125.332 87.89 125.182 88.18C125.032 88.47 124.957 88.815 124.957 89.215V94H123.262ZM131.856 90.685V89.185H137.856V90.685H131.856ZM142.647 94.18C141.817 94.18 141.087 93.975 140.457 93.565C139.837 93.155 139.402 92.605 139.152 91.915L140.457 91.3C140.677 91.76 140.977 92.125 141.357 92.395C141.747 92.665 142.177 92.8 142.647 92.8C143.047 92.8 143.372 92.71 143.622 92.53C143.872 92.35 143.997 92.105 143.997 91.795C143.997 91.595 143.942 91.435 143.832 91.315C143.722 91.185 143.582 91.08 143.412 91C143.252 90.92 143.087 90.86 142.917 90.82L141.642 90.46C140.942 90.26 140.417 89.96 140.067 89.56C139.727 89.15 139.557 88.675 139.557 88.135C139.557 87.645 139.682 87.22 139.932 86.86C140.182 86.49 140.527 86.205 140.967 86.005C141.407 85.805 141.902 85.705 142.452 85.705C143.192 85.705 143.852 85.89 144.432 86.26C145.012 86.62 145.422 87.125 145.662 87.775L144.357 88.39C144.197 88 143.942 87.69 143.592 87.46C143.252 87.23 142.867 87.115 142.437 87.115C142.067 87.115 141.772 87.205 141.552 87.385C141.332 87.555 141.222 87.78 141.222 88.06C141.222 88.25 141.272 88.41 141.372 88.54C141.472 88.66 141.602 88.76 141.762 88.84C141.922 88.91 142.087 88.97 142.257 89.02L143.577 89.41C144.247 89.6 144.762 89.9 145.122 90.31C145.482 90.71 145.662 91.19 145.662 91.75C145.662 92.23 145.532 92.655 145.272 93.025C145.022 93.385 144.672 93.67 144.222 93.88C143.772 94.08 143.247 94.18 142.647 94.18ZM150.383 94.09C149.533 94.09 148.873 93.85 148.403 93.37C147.933 92.89 147.698 92.215 147.698 91.345V87.415H146.273V85.885H146.498C146.878 85.885 147.173 85.775 147.383 85.555C147.593 85.335 147.698 85.035 147.698 84.655V84.025H149.393V85.885H151.238V87.415H149.393V91.27C149.393 91.55 149.438 91.79 149.528 91.99C149.618 92.18 149.763 92.33 149.963 92.44C150.163 92.54 150.423 92.59 150.743 92.59C150.823 92.59 150.913 92.585 151.013 92.575C151.113 92.565 151.208 92.555 151.298 92.545V94C151.158 94.02 151.003 94.04 150.833 94.06C150.663 94.08 150.513 94.09 150.383 94.09ZM156.27 94.18C155.49 94.18 154.775 93.995 154.125 93.625C153.485 93.255 152.975 92.75 152.595 92.11C152.215 91.47 152.025 90.745 152.025 89.935C152.025 89.115 152.215 88.39 152.595 87.76C152.975 87.12 153.485 86.62 154.125 86.26C154.765 85.89 155.48 85.705 156.27 85.705C157.07 85.705 157.785 85.89 158.415 86.26C159.055 86.62 159.56 87.12 159.93 87.76C160.31 88.39 160.5 89.115 160.5 89.935C160.5 90.755 160.31 91.485 159.93 92.125C159.55 92.765 159.04 93.27 158.4 93.64C157.76 94 157.05 94.18 156.27 94.18ZM156.27 92.605C156.75 92.605 157.175 92.49 157.545 92.26C157.915 92.03 158.205 91.715 158.415 91.315C158.635 90.905 158.745 90.445 158.745 89.935C158.745 89.425 158.635 88.97 158.415 88.57C158.205 88.17 157.915 87.855 157.545 87.625C157.175 87.395 156.75 87.28 156.27 87.28C155.8 87.28 155.375 87.395 154.995 87.625C154.625 87.855 154.33 88.17 154.11 88.57C153.9 88.97 153.795 89.425 153.795 89.935C153.795 90.445 153.9 90.905 154.11 91.315C154.33 91.715 154.625 92.03 154.995 92.26C155.375 92.49 155.8 92.605 156.27 92.605ZM161.705 94V85.885H163.325V87.52L163.175 87.28C163.355 86.75 163.645 86.37 164.045 86.14C164.445 85.9 164.925 85.78 165.485 85.78H165.98V87.325H165.275C164.715 87.325 164.26 87.5 163.91 87.85C163.57 88.19 163.4 88.68 163.4 89.32V94H161.705ZM170.5 94.18C169.69 94.18 168.97 93.995 168.34 93.625C167.72 93.245 167.235 92.735 166.885 92.095C166.535 91.445 166.36 90.72 166.36 89.92C166.36 89.1 166.535 88.375 166.885 87.745C167.245 87.115 167.725 86.62 168.325 86.26C168.925 85.89 169.605 85.705 170.365 85.705C170.975 85.705 171.52 85.81 172 86.02C172.48 86.23 172.885 86.52 173.215 86.89C173.545 87.25 173.795 87.665 173.965 88.135C174.145 88.605 174.235 89.105 174.235 89.635C174.235 89.765 174.23 89.9 174.22 90.04C174.21 90.18 174.19 90.31 174.16 90.43H167.695V89.08H173.2L172.39 89.695C172.49 89.205 172.455 88.77 172.285 88.39C172.125 88 171.875 87.695 171.535 87.475C171.205 87.245 170.815 87.13 170.365 87.13C169.915 87.13 169.515 87.245 169.165 87.475C168.815 87.695 168.545 88.015 168.355 88.435C168.165 88.845 168.09 89.345 168.13 89.935C168.08 90.485 168.155 90.965 168.355 91.375C168.565 91.785 168.855 92.105 169.225 92.335C169.605 92.565 170.035 92.68 170.515 92.68C171.005 92.68 171.42 92.57 171.76 92.35C172.11 92.13 172.385 91.845 172.585 91.495L173.965 92.17C173.805 92.55 173.555 92.895 173.215 93.205C172.885 93.505 172.485 93.745 172.015 93.925C171.555 94.095 171.05 94.18 170.5 94.18ZM180.041 94.18C179.491 94.18 179.006 94.085 178.586 93.895C178.176 93.695 177.856 93.425 177.626 93.085C177.396 92.735 177.281 92.325 177.281 91.855C177.281 91.415 177.376 91.02 177.566 90.67C177.766 90.32 178.071 90.025 178.481 89.785C178.891 89.545 179.406 89.375 180.026 89.275L182.846 88.81V90.145L180.356 90.58C179.906 90.66 179.576 90.805 179.366 91.015C179.156 91.215 179.051 91.475 179.051 91.795C179.051 92.105 179.166 92.36 179.396 92.56C179.636 92.75 179.941 92.845 180.311 92.845C180.771 92.845 181.171 92.745 181.511 92.545C181.861 92.345 182.131 92.08 182.321 91.75C182.511 91.41 182.606 91.035 182.606 90.625V88.54C182.606 88.14 182.456 87.815 182.156 87.565C181.866 87.305 181.476 87.175 180.986 87.175C180.536 87.175 180.141 87.295 179.801 87.535C179.471 87.765 179.226 88.065 179.066 88.435L177.656 87.73C177.806 87.33 178.051 86.98 178.391 86.68C178.731 86.37 179.126 86.13 179.576 85.96C180.036 85.79 180.521 85.705 181.031 85.705C181.671 85.705 182.236 85.825 182.726 86.065C183.226 86.305 183.611 86.64 183.881 87.07C184.161 87.49 184.301 87.98 184.301 88.54V94H182.681V92.53L183.026 92.575C182.836 92.905 182.591 93.19 182.291 93.43C182.001 93.67 181.666 93.855 181.286 93.985C180.916 94.115 180.501 94.18 180.041 94.18ZM185.833 94V85.885H187.453V87.475L187.258 87.265C187.458 86.755 187.778 86.37 188.218 86.11C188.658 85.84 189.168 85.705 189.748 85.705C190.348 85.705 190.878 85.835 191.338 86.095C191.798 86.355 192.158 86.715 192.418 87.175C192.678 87.635 192.808 88.165 192.808 88.765V94H191.128V89.215C191.128 88.805 191.053 88.46 190.903 88.18C190.753 87.89 190.538 87.67 190.258 87.52C189.988 87.36 189.678 87.28 189.328 87.28C188.978 87.28 188.663 87.36 188.383 87.52C188.113 87.67 187.903 87.89 187.753 88.18C187.603 88.47 187.528 88.815 187.528 89.215V94H185.833ZM197.922 94.18C197.142 94.18 196.442 93.995 195.822 93.625C195.212 93.245 194.727 92.735 194.367 92.095C194.017 91.455 193.842 90.735 193.842 89.935C193.842 89.135 194.022 88.415 194.382 87.775C194.742 87.135 195.227 86.63 195.837 86.26C196.447 85.89 197.137 85.705 197.907 85.705C198.557 85.705 199.132 85.835 199.632 86.095C200.132 86.355 200.527 86.715 200.817 87.175L200.562 87.565V82.645H202.242V94H200.637V92.35L200.832 92.665C200.552 93.155 200.152 93.53 199.632 93.79C199.112 94.05 198.542 94.18 197.922 94.18ZM198.087 92.605C198.557 92.605 198.977 92.49 199.347 92.26C199.727 92.03 200.022 91.715 200.232 91.315C200.452 90.905 200.562 90.445 200.562 89.935C200.562 89.425 200.452 88.97 200.232 88.57C200.022 88.17 199.727 87.855 199.347 87.625C198.977 87.395 198.557 87.28 198.087 87.28C197.617 87.28 197.192 87.395 196.812 87.625C196.432 87.855 196.137 88.17 195.927 88.57C195.717 88.97 195.612 89.425 195.612 89.935C195.612 90.445 195.717 90.905 195.927 91.315C196.137 91.715 196.427 92.03 196.797 92.26C197.177 92.49 197.607 92.605 198.087 92.605ZM209.858 94.18C209.078 94.18 208.363 93.995 207.713 93.625C207.073 93.255 206.563 92.75 206.183 92.11C205.803 91.47 205.613 90.745 205.613 89.935C205.613 89.115 205.803 88.39 206.183 87.76C206.563 87.12 207.073 86.62 207.713 86.26C208.353 85.89 209.068 85.705 209.858 85.705C210.658 85.705 211.373 85.89 212.003 86.26C212.643 86.62 213.148 87.12 213.518 87.76C213.898 88.39 214.088 89.115 214.088 89.935C214.088 90.755 213.898 91.485 213.518 92.125C213.138 92.765 212.628 93.27 211.988 93.64C211.348 94 210.638 94.18 209.858 94.18ZM209.858 92.605C210.338 92.605 210.763 92.49 211.133 92.26C211.503 92.03 211.793 91.715 212.003 91.315C212.223 90.905 212.333 90.445 212.333 89.935C212.333 89.425 212.223 88.97 212.003 88.57C211.793 88.17 211.503 87.855 211.133 87.625C210.763 87.395 210.338 87.28 209.858 87.28C209.388 87.28 208.963 87.395 208.583 87.625C208.213 87.855 207.918 88.17 207.698 88.57C207.488 88.97 207.383 89.425 207.383 89.935C207.383 90.445 207.488 90.905 207.698 91.315C207.918 91.715 208.213 92.03 208.583 92.26C208.963 92.49 209.388 92.605 209.858 92.605ZM215.293 94V85.885H216.913V87.475L216.718 87.265C216.918 86.755 217.238 86.37 217.678 86.11C218.118 85.84 218.628 85.705 219.208 85.705C219.808 85.705 220.338 85.835 220.798 86.095C221.258 86.355 221.618 86.715 221.878 87.175C222.138 87.635 222.268 88.165 222.268 88.765V94H220.588V89.215C220.588 88.805 220.513 88.46 220.363 88.18C220.213 87.89 219.998 87.67 219.718 87.52C219.448 87.36 219.138 87.28 218.788 87.28C218.438 87.28 218.123 87.36 217.843 87.52C217.573 87.67 217.363 87.89 217.213 88.18C217.063 88.47 216.988 88.815 216.988 89.215V94H215.293ZM223.632 94V82.645H225.327V94H223.632ZM226.859 94V85.885H228.554V94H226.859ZM226.859 84.775V82.825H228.554V84.775H226.859ZM230.085 94V85.885H231.705V87.475L231.51 87.265C231.71 86.755 232.03 86.37 232.47 86.11C232.91 85.84 233.42 85.705 234 85.705C234.6 85.705 235.13 85.835 235.59 86.095C236.05 86.355 236.41 86.715 236.67 87.175C236.93 87.635 237.06 88.165 237.06 88.765V94H235.38V89.215C235.38 88.805 235.305 88.46 235.155 88.18C235.005 87.89 234.79 87.67 234.51 87.52C234.24 87.36 233.93 87.28 233.58 87.28C233.23 87.28 232.915 87.36 232.635 87.52C232.365 87.67 232.155 87.89 232.005 88.18C231.855 88.47 231.78 88.815 231.78 89.215V94H230.085ZM242.234 94.18C241.424 94.18 240.704 93.995 240.074 93.625C239.454 93.245 238.969 92.735 238.619 92.095C238.269 91.445 238.094 90.72 238.094 89.92C238.094 89.1 238.269 88.375 238.619 87.745C238.979 87.115 239.459 86.62 240.059 86.26C240.659 85.89 241.339 85.705 242.099 85.705C242.709 85.705 243.254 85.81 243.734 86.02C244.214 86.23 244.619 86.52 244.949 86.89C245.279 87.25 245.529 87.665 245.699 88.135C245.879 88.605 245.969 89.105 245.969 89.635C245.969 89.765 245.964 89.9 245.954 90.04C245.944 90.18 245.924 90.31 245.894 90.43H239.429V89.08H244.934L244.124 89.695C244.224 89.205 244.189 88.77 244.019 88.39C243.859 88 243.609 87.695 243.269 87.475C242.939 87.245 242.549 87.13 242.099 87.13C241.649 87.13 241.249 87.245 240.899 87.475C240.549 87.695 240.279 88.015 240.089 88.435C239.899 88.845 239.824 89.345 239.864 89.935C239.814 90.485 239.889 90.965 240.089 91.375C240.299 91.785 240.589 92.105 240.959 92.335C241.339 92.565 241.769 92.68 242.249 92.68C242.739 92.68 243.154 92.57 243.494 92.35C243.844 92.13 244.119 91.845 244.319 91.495L245.699 92.17C245.539 92.55 245.289 92.895 244.949 93.205C244.619 93.505 244.219 93.745 243.749 93.925C243.289 94.095 242.784 94.18 242.234 94.18Z" fill="white"/>
<path opacity="0.9" d="M109.03 290.925L108.081 290.236L109.082 288.884L107.535 288.364L107.899 287.246L109.446 287.766V286.063H110.629V287.766L112.176 287.246L112.54 288.364L110.993 288.884L112.007 290.236L111.058 290.925L110.044 289.573L109.03 290.925ZM114.029 295.748V286.063H117.552C118.202 286.063 118.774 286.185 119.268 286.427C119.771 286.661 120.161 287.008 120.438 287.467C120.715 287.918 120.854 288.46 120.854 289.092C120.854 289.716 120.711 290.254 120.425 290.704C120.148 291.155 119.762 291.502 119.268 291.744C118.774 291.987 118.202 292.108 117.552 292.108H115.563V295.748H114.029ZM115.563 290.743H117.591C117.938 290.743 118.241 290.674 118.501 290.535C118.761 290.397 118.965 290.206 119.112 289.963C119.259 289.712 119.333 289.417 119.333 289.079C119.333 288.741 119.259 288.451 119.112 288.208C118.965 287.957 118.761 287.766 118.501 287.636C118.241 287.498 117.938 287.428 117.591 287.428H115.563V290.743ZM121.9 295.748V288.715H123.304V290.132L123.174 289.924C123.33 289.465 123.582 289.136 123.928 288.936C124.275 288.728 124.691 288.624 125.176 288.624H125.605V289.963H124.994C124.509 289.963 124.115 290.115 123.811 290.418C123.517 290.713 123.369 291.138 123.369 291.692V295.748H121.9ZM129.613 295.904C128.937 295.904 128.317 295.744 127.754 295.423C127.199 295.103 126.757 294.665 126.428 294.11C126.099 293.556 125.934 292.927 125.934 292.225C125.934 291.515 126.099 290.886 126.428 290.34C126.757 289.786 127.199 289.352 127.754 289.04C128.309 288.72 128.928 288.559 129.613 288.559C130.306 288.559 130.926 288.72 131.472 289.04C132.027 289.352 132.464 289.786 132.785 290.34C133.114 290.886 133.279 291.515 133.279 292.225C133.279 292.936 133.114 293.569 132.785 294.123C132.456 294.678 132.014 295.116 131.459 295.436C130.904 295.748 130.289 295.904 129.613 295.904ZM129.613 294.539C130.029 294.539 130.397 294.44 130.718 294.24C131.039 294.041 131.29 293.768 131.472 293.421C131.663 293.066 131.758 292.667 131.758 292.225C131.758 291.783 131.663 291.389 131.472 291.042C131.29 290.696 131.039 290.423 130.718 290.223C130.397 290.024 130.029 289.924 129.613 289.924C129.206 289.924 128.837 290.024 128.508 290.223C128.187 290.423 127.932 290.696 127.741 291.042C127.559 291.389 127.468 291.783 127.468 292.225C127.468 292.667 127.559 293.066 127.741 293.421C127.932 293.768 128.187 294.041 128.508 294.24C128.837 294.44 129.206 294.539 129.613 294.539ZM134.323 295.748V288.715H135.727V290.236L135.545 290.002C135.693 289.526 135.961 289.166 136.351 288.923C136.741 288.681 137.188 288.559 137.69 288.559C138.254 288.559 138.752 288.711 139.185 289.014C139.627 289.309 139.922 289.703 140.069 290.197L139.653 290.236C139.861 289.673 140.178 289.253 140.602 288.975C141.036 288.698 141.53 288.559 142.084 288.559C142.57 288.559 143.007 288.672 143.397 288.897C143.796 289.123 144.112 289.435 144.346 289.833C144.58 290.232 144.697 290.687 144.697 291.198V295.748H143.228V291.601C143.228 291.246 143.163 290.947 143.033 290.704C142.912 290.453 142.739 290.262 142.513 290.132C142.297 289.994 142.041 289.924 141.746 289.924C141.452 289.924 141.192 289.994 140.966 290.132C140.741 290.262 140.563 290.453 140.433 290.704C140.303 290.956 140.238 291.255 140.238 291.601V295.748H138.782V291.601C138.782 291.246 138.717 290.947 138.587 290.704C138.466 290.453 138.293 290.262 138.067 290.132C137.851 289.994 137.591 289.924 137.287 289.924C136.993 289.924 136.733 289.994 136.507 290.132C136.282 290.262 136.104 290.453 135.974 290.704C135.853 290.956 135.792 291.255 135.792 291.601V295.748H134.323ZM149.273 295.904C148.597 295.904 147.977 295.744 147.414 295.423C146.859 295.103 146.417 294.665 146.088 294.11C145.758 293.556 145.594 292.927 145.594 292.225C145.594 291.515 145.758 290.886 146.088 290.34C146.417 289.786 146.859 289.352 147.414 289.04C147.968 288.72 148.588 288.559 149.273 288.559C149.966 288.559 150.586 288.72 151.132 289.04C151.686 289.352 152.124 289.786 152.445 290.34C152.774 290.886 152.939 291.515 152.939 292.225C152.939 292.936 152.774 293.569 152.445 294.123C152.115 294.678 151.673 295.116 151.119 295.436C150.564 295.748 149.949 295.904 149.273 295.904ZM149.273 294.539C149.689 294.539 150.057 294.44 150.378 294.24C150.698 294.041 150.95 293.768 151.132 293.421C151.322 293.066 151.418 292.667 151.418 292.225C151.418 291.783 151.322 291.389 151.132 291.042C150.95 290.696 150.698 290.423 150.378 290.223C150.057 290.024 149.689 289.924 149.273 289.924C148.865 289.924 148.497 290.024 148.168 290.223C147.847 290.423 147.591 290.696 147.401 291.042C147.219 291.389 147.128 291.783 147.128 292.225C147.128 292.667 147.219 293.066 147.401 293.421C147.591 293.768 147.847 294.041 148.168 294.24C148.497 294.44 148.865 294.539 149.273 294.539ZM155.865 295.748V288.715H157.269V290.132L157.139 289.924C157.295 289.465 157.547 289.136 157.893 288.936C158.24 288.728 158.656 288.624 159.141 288.624H159.57V289.963H158.959C158.474 289.963 158.08 290.115 157.776 290.418C157.482 290.713 157.334 291.138 157.334 291.692V295.748H155.865ZM162.694 295.904C162.166 295.904 161.702 295.787 161.303 295.553C160.905 295.311 160.593 294.977 160.367 294.552C160.151 294.119 160.042 293.621 160.042 293.057V288.715H161.511V292.927C161.511 293.248 161.576 293.53 161.706 293.772C161.836 294.015 162.018 294.206 162.252 294.344C162.486 294.474 162.755 294.539 163.058 294.539C163.37 294.539 163.643 294.47 163.877 294.331C164.111 294.193 164.293 293.998 164.423 293.746C164.562 293.495 164.631 293.2 164.631 292.862V288.715H166.087V295.748H164.696V294.37L164.852 294.552C164.688 294.986 164.415 295.319 164.033 295.553C163.652 295.787 163.206 295.904 162.694 295.904ZM167.412 295.748V288.715H168.816V290.093L168.647 289.911C168.821 289.469 169.098 289.136 169.479 288.91C169.861 288.676 170.303 288.559 170.805 288.559C171.325 288.559 171.785 288.672 172.183 288.897C172.582 289.123 172.894 289.435 173.119 289.833C173.345 290.232 173.457 290.691 173.457 291.211V295.748H172.001V291.601C172.001 291.246 171.936 290.947 171.806 290.704C171.676 290.453 171.49 290.262 171.247 290.132C171.013 289.994 170.745 289.924 170.441 289.924C170.138 289.924 169.865 289.994 169.622 290.132C169.388 290.262 169.206 290.453 169.076 290.704C168.946 290.956 168.881 291.255 168.881 291.601V295.748H167.412ZM177.24 295.904C176.52 295.904 175.888 295.727 175.342 295.371C174.804 295.016 174.427 294.539 174.211 293.941L175.342 293.408C175.532 293.807 175.792 294.123 176.122 294.357C176.46 294.591 176.832 294.708 177.24 294.708C177.586 294.708 177.868 294.63 178.085 294.474C178.301 294.318 178.41 294.106 178.41 293.837C178.41 293.664 178.362 293.525 178.267 293.421C178.171 293.309 178.05 293.218 177.903 293.148C177.764 293.079 177.621 293.027 177.474 292.992L176.369 292.68C175.762 292.507 175.307 292.247 175.004 291.9C174.709 291.545 174.562 291.133 174.562 290.665C174.562 290.241 174.67 289.872 174.887 289.56C175.103 289.24 175.402 288.993 175.784 288.819C176.165 288.646 176.594 288.559 177.071 288.559C177.712 288.559 178.284 288.72 178.787 289.04C179.289 289.352 179.645 289.79 179.853 290.353L178.722 290.886C178.583 290.548 178.362 290.28 178.059 290.08C177.764 289.881 177.43 289.781 177.058 289.781C176.737 289.781 176.481 289.859 176.291 290.015C176.1 290.163 176.005 290.358 176.005 290.6C176.005 290.765 176.048 290.904 176.135 291.016C176.221 291.12 176.334 291.207 176.473 291.276C176.611 291.337 176.754 291.389 176.902 291.432L178.046 291.77C178.626 291.935 179.073 292.195 179.385 292.55C179.697 292.897 179.853 293.313 179.853 293.798C179.853 294.214 179.74 294.583 179.515 294.903C179.298 295.215 178.995 295.462 178.605 295.644C178.215 295.818 177.76 295.904 177.24 295.904ZM185.293 295.904C184.765 295.904 184.301 295.787 183.902 295.553C183.504 295.311 183.192 294.977 182.966 294.552C182.75 294.119 182.641 293.621 182.641 293.057V288.715H184.11V292.927C184.11 293.248 184.175 293.53 184.305 293.772C184.435 294.015 184.617 294.206 184.851 294.344C185.085 294.474 185.354 294.539 185.657 294.539C185.969 294.539 186.242 294.47 186.476 294.331C186.71 294.193 186.892 293.998 187.022 293.746C187.161 293.495 187.23 293.2 187.23 292.862V288.715H188.686V295.748H187.295V294.37L187.451 294.552C187.287 294.986 187.014 295.319 186.632 295.553C186.251 295.787 185.805 295.904 185.293 295.904ZM190.012 295.748V288.715H191.416V290.093L191.247 289.911C191.42 289.469 191.697 289.136 192.079 288.91C192.46 288.676 192.902 288.559 193.405 288.559C193.925 288.559 194.384 288.672 194.783 288.897C195.181 289.123 195.493 289.435 195.719 289.833C195.944 290.232 196.057 290.691 196.057 291.211V295.748H194.601V291.601C194.601 291.246 194.536 290.947 194.406 290.704C194.276 290.453 194.089 290.262 193.847 290.132C193.613 289.994 193.344 289.924 193.041 289.924C192.737 289.924 192.464 289.994 192.222 290.132C191.988 290.262 191.806 290.453 191.676 290.704C191.546 290.956 191.481 291.255 191.481 291.601V295.748H190.012ZM200.281 295.826C199.544 295.826 198.972 295.618 198.565 295.202C198.157 294.786 197.954 294.201 197.954 293.447V290.041H196.719V288.715H196.914C197.243 288.715 197.499 288.62 197.681 288.429C197.863 288.239 197.954 287.979 197.954 287.649V287.103H199.423V288.715H201.022V290.041H199.423V293.382C199.423 293.625 199.462 293.833 199.54 294.006C199.618 294.171 199.743 294.301 199.917 294.396C200.09 294.483 200.315 294.526 200.593 294.526C200.662 294.526 200.74 294.522 200.827 294.513C200.913 294.505 200.996 294.496 201.074 294.487V295.748C200.952 295.766 200.818 295.783 200.671 295.8C200.523 295.818 200.393 295.826 200.281 295.826ZM202.117 295.748V288.715H203.586V295.748H202.117ZM202.117 287.753V286.063H203.586V287.753H202.117ZM204.914 295.748V285.907H206.383V295.748H204.914ZM211.023 295.748V287.363H209.164V286.063H212.544V295.748H211.023ZM214.086 295.748V294.643L216.738 291.809C217.258 291.255 217.665 290.808 217.96 290.47C218.263 290.124 218.48 289.82 218.61 289.56C218.748 289.3 218.818 289.027 218.818 288.741C218.818 288.273 218.675 287.914 218.389 287.662C218.103 287.402 217.734 287.272 217.284 287.272C216.816 287.272 216.413 287.407 216.075 287.675C215.737 287.935 215.503 288.317 215.373 288.819L214.021 288.429C214.125 287.918 214.333 287.476 214.645 287.103C214.957 286.722 215.338 286.427 215.789 286.219C216.248 286.011 216.742 285.907 217.271 285.907C217.886 285.907 218.423 286.024 218.883 286.258C219.342 286.484 219.697 286.8 219.949 287.207C220.209 287.615 220.339 288.087 220.339 288.624C220.339 288.98 220.269 289.326 220.131 289.664C220.001 289.994 219.797 290.345 219.52 290.717C219.242 291.081 218.887 291.493 218.454 291.952L216.114 294.448H220.521V295.748H214.086ZM220.958 297.308L225.3 286.583H226.925L222.583 297.308H220.958ZM228.972 295.748V287.363H227.113V286.063H230.493V295.748H228.972ZM232.035 295.748V294.643L234.687 291.809C235.207 291.255 235.614 290.808 235.909 290.47C236.212 290.124 236.429 289.82 236.559 289.56C236.697 289.3 236.767 289.027 236.767 288.741C236.767 288.273 236.624 287.914 236.338 287.662C236.052 287.402 235.683 287.272 235.233 287.272C234.765 287.272 234.362 287.407 234.024 287.675C233.686 287.935 233.452 288.317 233.322 288.819L231.97 288.429C232.074 287.918 232.282 287.476 232.594 287.103C232.906 286.722 233.287 286.427 233.738 286.219C234.197 286.011 234.691 285.907 235.22 285.907C235.835 285.907 236.372 286.024 236.832 286.258C237.291 286.484 237.646 286.8 237.898 287.207C238.158 287.615 238.288 288.087 238.288 288.624C238.288 288.98 238.218 289.326 238.08 289.664C237.95 289.994 237.746 290.345 237.469 290.717C237.191 291.081 236.836 291.493 236.403 291.952L234.063 294.448H238.47V295.748H232.035ZM238.907 297.308L243.249 286.583H244.874L240.532 297.308H238.907ZM245.283 295.748V294.643L247.935 291.809C248.455 291.255 248.862 290.808 249.157 290.47C249.46 290.124 249.677 289.82 249.807 289.56C249.946 289.3 250.015 289.027 250.015 288.741C250.015 288.273 249.872 287.914 249.586 287.662C249.3 287.402 248.932 287.272 248.481 287.272C248.013 287.272 247.61 287.407 247.272 287.675C246.934 287.935 246.7 288.317 246.57 288.819L245.218 288.429C245.322 287.918 245.53 287.476 245.842 287.103C246.154 286.722 246.535 286.427 246.986 286.219C247.445 286.011 247.939 285.907 248.468 285.907C249.083 285.907 249.621 286.024 250.08 286.258C250.539 286.484 250.895 286.8 251.146 287.207C251.406 287.615 251.536 288.087 251.536 288.624C251.536 288.98 251.467 289.326 251.328 289.664C251.198 289.994 250.994 290.345 250.717 290.717C250.44 291.081 250.084 291.493 249.651 291.952L247.311 294.448H251.718V295.748H245.283ZM252.663 295.748V294.643L255.315 291.809C255.835 291.255 256.242 290.808 256.537 290.47C256.84 290.124 257.057 289.82 257.187 289.56C257.325 289.3 257.395 289.027 257.395 288.741C257.395 288.273 257.252 287.914 256.966 287.662C256.68 287.402 256.311 287.272 255.861 287.272C255.393 287.272 254.99 287.407 254.652 287.675C254.314 287.935 254.08 288.317 253.95 288.819L252.598 288.429C252.702 287.918 252.91 287.476 253.222 287.103C253.534 286.722 253.915 286.427 254.366 286.219C254.825 286.011 255.319 285.907 255.848 285.907C256.463 285.907 257 286.024 257.46 286.258C257.919 286.484 258.274 286.8 258.526 287.207C258.786 287.615 258.916 288.087 258.916 288.624C258.916 288.98 258.846 289.326 258.708 289.664C258.578 289.994 258.374 290.345 258.097 290.717C257.819 291.081 257.464 291.493 257.031 291.952L254.691 294.448H259.098V295.748H252.663Z" fill="white"/>
<path d="M106.06 261.909C105.173 261.909 104.35 261.744 103.59 261.415C102.83 261.073 102.184 260.611 101.652 260.028C101.12 259.445 100.727 258.774 100.474 258.014L102.374 257.216C102.716 258.09 103.216 258.761 103.875 259.23C104.533 259.699 105.293 259.933 106.155 259.933C106.661 259.933 107.105 259.857 107.485 259.705C107.865 259.54 108.156 259.312 108.359 259.021C108.574 258.73 108.682 258.394 108.682 258.014C108.682 257.495 108.536 257.083 108.245 256.779C107.953 256.475 107.523 256.234 106.953 256.057L104.293 255.221C103.229 254.892 102.418 254.391 101.861 253.72C101.303 253.036 101.025 252.238 101.025 251.326C101.025 250.528 101.221 249.831 101.614 249.236C102.006 248.628 102.545 248.153 103.229 247.811C103.925 247.469 104.717 247.298 105.604 247.298C106.452 247.298 107.225 247.45 107.922 247.754C108.618 248.045 109.214 248.451 109.708 248.97C110.214 249.489 110.582 250.091 110.81 250.775L108.948 251.592C108.669 250.845 108.232 250.268 107.637 249.863C107.054 249.458 106.376 249.255 105.604 249.255C105.135 249.255 104.723 249.337 104.369 249.502C104.014 249.654 103.735 249.882 103.533 250.186C103.343 250.477 103.248 250.819 103.248 251.212C103.248 251.668 103.393 252.073 103.685 252.428C103.976 252.783 104.419 253.049 105.015 253.226L107.485 254.005C108.612 254.347 109.461 254.841 110.031 255.487C110.601 256.12 110.886 256.912 110.886 257.862C110.886 258.647 110.677 259.344 110.259 259.952C109.853 260.56 109.29 261.041 108.568 261.396C107.846 261.738 107.01 261.909 106.06 261.909ZM116.29 261.909C115.518 261.909 114.84 261.738 114.257 261.396C113.675 261.041 113.219 260.554 112.889 259.933C112.573 259.3 112.414 258.571 112.414 257.748V251.402H114.561V257.558C114.561 258.027 114.656 258.438 114.846 258.793C115.036 259.148 115.302 259.426 115.644 259.629C115.986 259.819 116.379 259.914 116.822 259.914C117.278 259.914 117.677 259.813 118.019 259.61C118.361 259.407 118.627 259.122 118.817 258.755C119.02 258.388 119.121 257.957 119.121 257.463V251.402H121.249V261.681H119.216V259.667L119.444 259.933C119.204 260.566 118.805 261.054 118.247 261.396C117.69 261.738 117.038 261.909 116.29 261.909ZM123.186 261.681V251.402H125.238V253.625L124.972 253.283C125.188 252.586 125.58 252.061 126.15 251.706C126.72 251.351 127.373 251.174 128.107 251.174C128.931 251.174 129.659 251.396 130.292 251.839C130.938 252.27 131.369 252.846 131.584 253.568L130.976 253.625C131.28 252.802 131.743 252.187 132.363 251.782C132.997 251.377 133.719 251.174 134.529 251.174C135.239 251.174 135.878 251.339 136.448 251.668C137.031 251.997 137.493 252.453 137.835 253.036C138.177 253.619 138.348 254.284 138.348 255.031V261.681H136.201V255.62C136.201 255.101 136.106 254.664 135.916 254.309C135.739 253.942 135.486 253.663 135.156 253.473C134.84 253.27 134.466 253.169 134.035 253.169C133.605 253.169 133.225 253.27 132.895 253.473C132.566 253.663 132.306 253.942 132.116 254.309C131.926 254.676 131.831 255.113 131.831 255.62V261.681H129.703V255.62C129.703 255.101 129.608 254.664 129.418 254.309C129.241 253.942 128.988 253.663 128.658 253.473C128.342 253.27 127.962 253.169 127.518 253.169C127.088 253.169 126.708 253.27 126.378 253.473C126.049 253.663 125.789 253.942 125.599 254.309C125.422 254.676 125.333 255.113 125.333 255.62V261.681H123.186ZM140.076 261.681V251.402H142.128V253.625L141.862 253.283C142.077 252.586 142.47 252.061 143.04 251.706C143.61 251.351 144.263 251.174 144.997 251.174C145.821 251.174 146.549 251.396 147.182 251.839C147.828 252.27 148.259 252.846 148.474 253.568L147.866 253.625C148.17 252.802 148.632 252.187 149.253 251.782C149.887 251.377 150.609 251.174 151.419 251.174C152.129 251.174 152.768 251.339 153.338 251.668C153.921 251.997 154.383 252.453 154.725 253.036C155.067 253.619 155.238 254.284 155.238 255.031V261.681H153.091V255.62C153.091 255.101 152.996 254.664 152.806 254.309C152.629 253.942 152.376 253.663 152.046 253.473C151.73 253.27 151.356 253.169 150.925 253.169C150.495 253.169 150.115 253.27 149.785 253.473C149.456 253.663 149.196 253.942 149.006 254.309C148.816 254.676 148.721 255.113 148.721 255.62V261.681H146.593V255.62C146.593 255.101 146.498 254.664 146.308 254.309C146.131 253.942 145.878 253.663 145.548 253.473C145.232 253.27 144.852 253.169 144.408 253.169C143.978 253.169 143.598 253.27 143.268 253.473C142.939 253.663 142.679 253.942 142.489 254.309C142.312 254.676 142.223 255.113 142.223 255.62V261.681H140.076ZM161.792 261.909C160.766 261.909 159.854 261.675 159.056 261.206C158.271 260.725 157.656 260.079 157.213 259.268C156.77 258.445 156.548 257.526 156.548 256.513C156.548 255.474 156.77 254.556 157.213 253.758C157.669 252.96 158.277 252.333 159.037 251.877C159.797 251.408 160.658 251.174 161.621 251.174C162.394 251.174 163.084 251.307 163.692 251.573C164.3 251.839 164.813 252.206 165.231 252.675C165.649 253.131 165.966 253.657 166.181 254.252C166.409 254.847 166.523 255.481 166.523 256.152C166.523 256.317 166.517 256.488 166.504 256.665C166.491 256.842 166.466 257.007 166.428 257.159H158.239V255.449H165.212L164.186 256.228C164.313 255.607 164.268 255.056 164.053 254.575C163.85 254.081 163.534 253.695 163.103 253.416C162.685 253.125 162.191 252.979 161.621 252.979C161.051 252.979 160.544 253.125 160.101 253.416C159.658 253.695 159.316 254.1 159.075 254.632C158.834 255.151 158.739 255.785 158.79 256.532C158.727 257.229 158.822 257.837 159.075 258.356C159.341 258.875 159.708 259.281 160.177 259.572C160.658 259.863 161.203 260.009 161.811 260.009C162.432 260.009 162.957 259.87 163.388 259.591C163.831 259.312 164.18 258.951 164.433 258.508L166.181 259.363C165.978 259.844 165.662 260.281 165.231 260.674C164.813 261.054 164.306 261.358 163.711 261.586C163.128 261.801 162.489 261.909 161.792 261.909ZM168.048 261.681V251.402H170.1V253.473L169.91 253.169C170.138 252.498 170.506 252.016 171.012 251.725C171.519 251.421 172.127 251.269 172.836 251.269H173.463V253.226H172.57C171.861 253.226 171.285 253.448 170.841 253.891C170.411 254.322 170.195 254.942 170.195 255.753V261.681H168.048ZM183.916 261.909C182.915 261.909 181.984 261.725 181.123 261.358C180.274 260.991 179.533 260.484 178.9 259.838C178.279 259.179 177.791 258.407 177.437 257.52C177.082 256.633 176.905 255.658 176.905 254.594C176.905 253.543 177.076 252.574 177.418 251.687C177.772 250.788 178.266 250.015 178.9 249.369C179.533 248.71 180.274 248.204 181.123 247.849C181.971 247.482 182.902 247.298 183.916 247.298C184.916 247.298 185.809 247.469 186.595 247.811C187.393 248.153 188.064 248.603 188.609 249.16C189.153 249.705 189.546 250.3 189.787 250.946L187.773 251.896C187.469 251.136 186.981 250.522 186.31 250.053C185.651 249.572 184.853 249.331 183.916 249.331C182.978 249.331 182.149 249.553 181.427 249.996C180.705 250.439 180.141 251.054 179.736 251.839C179.343 252.624 179.147 253.543 179.147 254.594C179.147 255.645 179.343 256.57 179.736 257.368C180.141 258.153 180.705 258.768 181.427 259.211C182.149 259.642 182.978 259.857 183.916 259.857C184.853 259.857 185.651 259.623 186.31 259.154C186.981 258.685 187.469 258.071 187.773 257.311L189.787 258.261C189.546 258.894 189.153 259.49 188.609 260.047C188.064 260.604 187.393 261.054 186.595 261.396C185.809 261.738 184.916 261.909 183.916 261.909ZM196.087 261.909C195.099 261.909 194.193 261.675 193.37 261.206C192.559 260.737 191.913 260.098 191.432 259.287C190.95 258.476 190.71 257.558 190.71 256.532C190.71 255.493 190.95 254.575 191.432 253.777C191.913 252.966 192.559 252.333 193.37 251.877C194.18 251.408 195.086 251.174 196.087 251.174C197.1 251.174 198.006 251.408 198.804 251.877C199.614 252.333 200.254 252.966 200.723 253.777C201.204 254.575 201.445 255.493 201.445 256.532C201.445 257.571 201.204 258.495 200.723 259.306C200.241 260.117 199.595 260.756 198.785 261.225C197.974 261.681 197.075 261.909 196.087 261.909ZM196.087 259.914C196.695 259.914 197.233 259.768 197.702 259.477C198.17 259.186 198.538 258.787 198.804 258.28C199.082 257.761 199.222 257.178 199.222 256.532C199.222 255.886 199.082 255.31 198.804 254.803C198.538 254.296 198.17 253.897 197.702 253.606C197.233 253.315 196.695 253.169 196.087 253.169C195.491 253.169 194.953 253.315 194.472 253.606C194.003 253.897 193.629 254.296 193.351 254.803C193.085 255.31 192.952 255.886 192.952 256.532C192.952 257.178 193.085 257.761 193.351 258.28C193.629 258.787 194.003 259.186 194.472 259.477C194.953 259.768 195.491 259.914 196.087 259.914ZM202.971 261.681V247.298H205.118V261.681H202.971ZM207.058 261.681V247.298H209.205V261.681H207.058ZM215.971 261.909C214.945 261.909 214.033 261.675 213.235 261.206C212.45 260.725 211.835 260.079 211.392 259.268C210.949 258.445 210.727 257.526 210.727 256.513C210.727 255.474 210.949 254.556 211.392 253.758C211.848 252.96 212.456 252.333 213.216 251.877C213.976 251.408 214.837 251.174 215.8 251.174C216.573 251.174 217.263 251.307 217.871 251.573C218.479 251.839 218.992 252.206 219.41 252.675C219.828 253.131 220.145 253.657 220.36 254.252C220.588 254.847 220.702 255.481 220.702 256.152C220.702 256.317 220.696 256.488 220.683 256.665C220.67 256.842 220.645 257.007 220.607 257.159H212.418V255.449H219.391L218.365 256.228C218.492 255.607 218.447 255.056 218.232 254.575C218.029 254.081 217.713 253.695 217.282 253.416C216.864 253.125 216.37 252.979 215.8 252.979C215.23 252.979 214.723 253.125 214.28 253.416C213.837 253.695 213.495 254.1 213.254 254.632C213.013 255.151 212.918 255.785 212.969 256.532C212.906 257.229 213.001 257.837 213.254 258.356C213.52 258.875 213.887 259.281 214.356 259.572C214.837 259.863 215.382 260.009 215.99 260.009C216.611 260.009 217.136 259.87 217.567 259.591C218.01 259.312 218.359 258.951 218.612 258.508L220.36 259.363C220.157 259.844 219.841 260.281 219.41 260.674C218.992 261.054 218.485 261.358 217.89 261.586C217.307 261.801 216.668 261.909 215.971 261.909ZM227.11 261.909C226.084 261.909 225.172 261.675 224.374 261.206C223.589 260.725 222.962 260.079 222.493 259.268C222.037 258.457 221.809 257.539 221.809 256.513C221.809 255.5 222.037 254.588 222.493 253.777C222.949 252.966 223.576 252.333 224.374 251.877C225.172 251.408 226.084 251.174 227.11 251.174C227.807 251.174 228.459 251.301 229.067 251.554C229.675 251.795 230.201 252.13 230.644 252.561C231.1 252.992 231.436 253.492 231.651 254.062L229.77 254.936C229.555 254.404 229.207 253.98 228.725 253.663C228.257 253.334 227.718 253.169 227.11 253.169C226.528 253.169 226.002 253.315 225.533 253.606C225.077 253.885 224.716 254.284 224.45 254.803C224.184 255.31 224.051 255.886 224.051 256.532C224.051 257.178 224.184 257.761 224.45 258.28C224.716 258.787 225.077 259.186 225.533 259.477C226.002 259.768 226.528 259.914 227.11 259.914C227.731 259.914 228.269 259.756 228.725 259.439C229.194 259.11 229.542 258.673 229.77 258.128L231.651 259.021C231.449 259.566 231.119 260.06 230.663 260.503C230.22 260.934 229.694 261.276 229.086 261.529C228.478 261.782 227.82 261.909 227.11 261.909ZM237.626 261.795C236.549 261.795 235.713 261.491 235.118 260.883C234.523 260.275 234.225 259.42 234.225 258.318V253.34H232.42V251.402H232.705C233.186 251.402 233.56 251.263 233.826 250.984C234.092 250.705 234.225 250.325 234.225 249.844V249.046H236.372V251.402H238.709V253.34H236.372V258.223C236.372 258.578 236.429 258.882 236.543 259.135C236.657 259.376 236.841 259.566 237.094 259.705C237.347 259.832 237.677 259.895 238.082 259.895C238.183 259.895 238.297 259.889 238.424 259.876C238.551 259.863 238.671 259.851 238.785 259.838V261.681C238.608 261.706 238.411 261.732 238.196 261.757C237.981 261.782 237.791 261.795 237.626 261.795ZM240.31 261.681V251.402H242.457V261.681H240.31ZM240.31 249.996V247.526H242.457V249.996H240.31ZM249.356 261.909C248.368 261.909 247.463 261.675 246.639 261.206C245.829 260.737 245.183 260.098 244.701 259.287C244.22 258.476 243.979 257.558 243.979 256.532C243.979 255.493 244.22 254.575 244.701 253.777C245.183 252.966 245.829 252.333 246.639 251.877C247.45 251.408 248.356 251.174 249.356 251.174C250.37 251.174 251.275 251.408 252.073 251.877C252.884 252.333 253.524 252.966 253.992 253.777C254.474 254.575 254.714 255.493 254.714 256.532C254.714 257.571 254.474 258.495 253.992 259.306C253.511 260.117 252.865 260.756 252.054 261.225C251.244 261.681 250.344 261.909 249.356 261.909ZM249.356 259.914C249.964 259.914 250.503 259.768 250.971 259.477C251.44 259.186 251.807 258.787 252.073 258.28C252.352 257.761 252.491 257.178 252.491 256.532C252.491 255.886 252.352 255.31 252.073 254.803C251.807 254.296 251.44 253.897 250.971 253.606C250.503 253.315 249.964 253.169 249.356 253.169C248.761 253.169 248.223 253.315 247.741 253.606C247.273 253.897 246.899 254.296 246.62 254.803C246.354 255.31 246.221 255.886 246.221 256.532C246.221 257.178 246.354 257.761 246.62 258.28C246.899 258.787 247.273 259.186 247.741 259.477C248.223 259.768 248.761 259.914 249.356 259.914ZM256.24 261.681V251.402H258.292V253.416L258.045 253.15C258.299 252.504 258.704 252.016 259.261 251.687C259.819 251.345 260.465 251.174 261.199 251.174C261.959 251.174 262.631 251.339 263.213 251.668C263.796 251.997 264.252 252.453 264.581 253.036C264.911 253.619 265.075 254.29 265.075 255.05V261.681H262.947V255.62C262.947 255.101 262.852 254.664 262.662 254.309C262.472 253.942 262.2 253.663 261.845 253.473C261.503 253.27 261.111 253.169 260.667 253.169C260.224 253.169 259.825 253.27 259.47 253.473C259.128 253.663 258.862 253.942 258.672 254.309C258.482 254.676 258.387 255.113 258.387 255.62V261.681H256.24Z" fill="white"/>
<defs>
<linearGradient id="paint0_linear_1_304" x1="189" y1="0" x2="189" y2="378" gradientUnits="userSpaceOnUse">
<stop stop-color="#FF8989"/>
<stop offset="1" stop-color="#FF8989" stop-opacity="0.33"/>
</linearGradient>
<linearGradient id="paint1_linear_1_304" x1="189" y1="0" x2="189" y2="378" gradientUnits="userSpaceOnUse">
<stop stop-color="#FF8989"/>
<stop offset="1" stop-color="#FF8989" stop-opacity="0.33"/>
</linearGradient>
</defs>
</svg>
