<svg width="40" height="40" viewBox="0 0 40 40" fill="none" xmlns="http://www.w3.org/2000/svg">
<path fill-rule="evenodd" clip-rule="evenodd" d="M0 20C0 8.95431 8.95431 0 20 0C31.0457 0 40 8.95431 40 20C40 31.0457 31.0457 40 20 40C8.95431 40 0 31.0457 0 20Z" fill="white"/>
<path fill-rule="evenodd" clip-rule="evenodd" d="M20 0C8.95431 0 0 8.95431 0 20C0 31.0457 8.95431 40 20 40C31.0457 40 40 31.0457 40 20C40 8.95431 31.0457 0 20 0ZM16.0198 9.39794C17.1576 9.34616 17.5211 9.3335 20.418 9.3335H20.4147C23.3125 9.3335 23.6747 9.34616 24.8125 9.39794C25.9481 9.44994 26.7237 9.62972 27.4037 9.8935C28.1059 10.1657 28.6992 10.5302 29.2926 11.1235C29.8859 11.7164 30.2504 12.3115 30.5237 13.0131C30.7859 13.6913 30.9659 14.4664 31.0193 15.602C31.0704 16.7398 31.0837 17.1034 31.0837 20.0003C31.0837 22.8972 31.0704 23.2599 31.0193 24.3977C30.9659 25.5328 30.7859 26.3081 30.5237 26.9866C30.2504 27.6879 29.8859 28.283 29.2926 28.8759C28.6999 29.4693 28.1057 29.8346 27.4043 30.107C26.7257 30.3708 25.9496 30.5506 24.8141 30.6026C23.6763 30.6544 23.3138 30.667 20.4167 30.667C17.52 30.667 17.1567 30.6544 16.0189 30.6026C14.8835 30.5506 14.1082 30.3708 13.4295 30.107C12.7284 29.8346 12.1333 29.4693 11.5406 28.8759C10.9475 28.283 10.583 27.6879 10.3104 26.9863C10.0468 26.3081 9.86703 25.533 9.81481 24.3974C9.76326 23.2596 9.75037 22.8972 9.75037 20.0003C9.75037 17.1034 9.7637 16.7396 9.81459 15.6018C9.8657 14.4667 10.0457 13.6913 10.3102 13.0129C10.5835 12.3115 10.9479 11.7164 11.5413 11.1235C12.1342 10.5304 12.7293 10.1659 13.4308 9.8935C14.1091 9.62972 14.8842 9.44994 16.0198 9.39794Z" fill="black"/>
<path fill-rule="evenodd" clip-rule="evenodd" d="M19.4612 11.2551C19.647 11.2548 19.8469 11.2549 20.0626 11.255L20.4181 11.2551C23.2661 11.2551 23.6037 11.2653 24.7284 11.3164C25.7684 11.364 26.3328 11.5378 26.7089 11.6838C27.2066 11.8771 27.5615 12.1082 27.9346 12.4816C28.308 12.8549 28.5391 13.2105 28.7329 13.7082C28.8789 14.0838 29.0529 14.6483 29.1002 15.6883C29.1513 16.8127 29.1624 17.1505 29.1624 19.9972C29.1624 22.8439 29.1513 23.1817 29.1002 24.3061C29.0527 25.3461 28.8789 25.9106 28.7329 26.2862C28.5395 26.7839 28.308 27.1384 27.9346 27.5115C27.5613 27.8848 27.2069 28.1159 26.7089 28.3093C26.3333 28.456 25.7684 28.6293 24.7284 28.6768C23.6039 28.728 23.2661 28.7391 20.4181 28.7391C17.5699 28.7391 17.2323 28.728 16.1079 28.6768C15.0678 28.6288 14.5034 28.4551 14.1272 28.3091C13.6294 28.1157 13.2738 27.8846 12.9005 27.5113C12.5271 27.1379 12.296 26.7833 12.1023 26.2853C11.9563 25.9097 11.7823 25.3453 11.7349 24.3052C11.6838 23.1808 11.6736 22.843 11.6736 19.9945C11.6736 17.1461 11.6838 16.8101 11.7349 15.6856C11.7825 14.6456 11.9563 14.0811 12.1023 13.7051C12.2956 13.2074 12.5271 12.8518 12.9005 12.4785C13.2738 12.1051 13.6294 11.874 14.1272 11.6802C14.5032 11.5336 15.0678 11.3602 16.1079 11.3124C17.0919 11.268 17.4732 11.2547 19.4612 11.2524V11.2551ZM26.1113 13.026C25.4046 13.026 24.8313 13.5986 24.8313 14.3055C24.8313 15.0122 25.4046 15.5855 26.1113 15.5855C26.818 15.5855 27.3913 15.0122 27.3913 14.3055C27.3913 13.5989 26.818 13.0255 26.1113 13.0255V13.026ZM14.9399 19.9987C14.9399 16.9736 17.3925 14.521 20.4176 14.5209C23.4427 14.5209 25.8947 16.9736 25.8947 19.9987C25.8947 23.0239 23.4429 25.4754 20.4178 25.4754C17.3926 25.4754 14.9399 23.0239 14.9399 19.9987Z" fill="black"/>
<path fill-rule="evenodd" clip-rule="evenodd" d="M20.4178 16.4441C22.3814 16.4441 23.9734 18.0359 23.9734 19.9997C23.9734 21.9633 22.3814 23.5553 20.4178 23.5553C18.454 23.5553 16.8622 21.9633 16.8622 19.9997C16.8622 18.0359 18.454 16.4441 20.4178 16.4441V16.4441Z" fill="black"/>
</svg>
