<svg width="40" height="40" viewBox="0 0 40 40" fill="none" xmlns="http://www.w3.org/2000/svg">
<path fill-rule="evenodd" clip-rule="evenodd" d="M0 20C0 8.95431 8.95431 0 20 0C31.0457 0 40 8.95431 40 20C40 31.0457 31.0457 40 20 40C8.95431 40 0 31.0457 0 20Z" fill="white"/>
<path fill-rule="evenodd" clip-rule="evenodd" d="M20 0C8.95431 0 0 8.95431 0 20C0 31.0457 8.95431 40 20 40C31.0457 40 40 31.0457 40 20C40 8.95431 31.0457 0 20 0ZM20.2767 16.9478L20.2347 16.2558C20.1088 14.4621 21.214 12.8238 22.9627 12.1882C23.6062 11.9623 24.6974 11.934 25.4109 12.1317C25.6907 12.2165 26.2223 12.4989 26.6 12.7532L27.2855 13.2192L28.0409 12.9791C28.4606 12.852 29.0202 12.6402 29.272 12.4989C29.5098 12.3718 29.7197 12.3012 29.7197 12.3436C29.7197 12.5837 29.2021 13.4028 28.7684 13.8548C28.1808 14.4903 28.3487 14.5468 29.5378 14.1231C30.2513 13.883 30.2653 13.883 30.1254 14.1514C30.0414 14.2926 29.6078 14.7869 29.1461 15.2389C28.3627 16.0157 28.3207 16.1004 28.3207 16.7501C28.3207 17.7528 27.8451 19.8431 27.3694 20.9871C26.4881 23.1338 24.5995 25.3512 22.7109 26.467C20.0529 28.0347 16.5135 28.4301 13.5337 27.5121C12.5405 27.2014 10.8337 26.4105 10.8337 26.2692C10.8337 26.2269 11.3514 26.1704 11.9809 26.1562C13.2959 26.128 14.6109 25.7608 15.7301 25.1111L16.4855 24.6592L15.6182 24.3626C14.3871 23.9389 13.2819 22.9644 13.0021 22.0463C12.9182 21.7498 12.9462 21.7356 13.7296 21.7356L14.541 21.7215L13.8555 21.3967C13.0441 20.9871 12.3026 20.295 11.9389 19.5889C11.6731 19.0804 11.3374 17.7952 11.4353 17.6963C11.4633 17.654 11.7571 17.7387 12.0928 17.8517C13.0581 18.2048 13.184 18.12 12.6244 17.5269C11.5752 16.4535 11.2534 14.8575 11.7571 13.3463L11.9949 12.6684L12.9182 13.5864C14.8068 15.4366 17.0311 16.5382 19.5772 16.8631L20.2767 16.9478Z" fill="black"/>
</svg>
