<svg width="40" height="40" viewBox="0 0 40 40" fill="none" xmlns="http://www.w3.org/2000/svg">
<path fill-rule="evenodd" clip-rule="evenodd" d="M0 20C0 8.95431 8.95431 0 20 0C31.0457 0 40 8.95431 40 20C40 31.0457 31.0457 40 20 40C8.95431 40 0 31.0457 0 20Z" fill="white"/>
<path fill-rule="evenodd" clip-rule="evenodd" d="M20 0C8.95431 0 0 8.95431 0 20C0 31.0457 8.95431 40 20 40C31.0457 40 40 31.0457 40 20C40 8.95431 31.0457 0 20 0ZM28.3348 13.125C29.2528 13.3769 29.9757 14.1191 30.221 15.0616C30.6668 16.7698 30.6668 20.3339 30.6668 20.3339C30.6668 20.3339 30.6668 23.8979 30.221 25.6062C29.9757 26.5487 29.2528 27.2909 28.3348 27.5429C26.6713 28.0006 20.0002 28.0006 20.0002 28.0006C20.0002 28.0006 13.329 28.0006 11.6654 27.5429C10.7474 27.2909 10.0245 26.5487 9.77919 25.6062C9.3335 23.8979 9.3335 20.3339 9.3335 20.3339C9.3335 20.3339 9.3335 16.7698 9.77919 15.0616C10.0245 14.1191 10.7474 13.3769 11.6654 13.125C13.329 12.6672 20.0002 12.6672 20.0002 12.6672C20.0002 12.6672 26.6713 12.6672 28.3348 13.125Z" fill="black"/>
<path fill-rule="evenodd" clip-rule="evenodd" d="M17.9999 23.9994V17.3328L23.3332 20.6662L17.9999 23.9994Z" fill="black"/>
</svg>
