<svg width="63" height="25" viewBox="0 0 63 25" fill="none" xmlns="http://www.w3.org/2000/svg">
<rect width="63" height="25" fill="#1C62CD"/>
<path d="M15.416 13.6738H16.4766C16.5273 14.1309 16.75 14.498 17.1445 14.7754C17.543 15.0527 18.0449 15.1914 18.6504 15.1914C19.2207 15.1914 19.6914 15.0566 20.0625 14.7871C20.4375 14.5137 20.625 14.1699 20.625 13.7559C20.625 13.4004 20.4941 13.1074 20.2324 12.877C19.9746 12.6465 19.5605 12.457 18.9902 12.3086L17.9062 12.0273C17.125 11.8281 16.5547 11.5508 16.1953 11.1953C15.8359 10.8359 15.6562 10.3691 15.6562 9.79492C15.6562 9.0918 15.9336 8.51758 16.4883 8.07227C17.0469 7.62695 17.7656 7.4043 18.6445 7.4043C19.4844 7.4043 20.1797 7.63086 20.7305 8.08398C21.2812 8.5332 21.5684 9.11133 21.5918 9.81836H20.5371C20.4902 9.36523 20.2949 9.00781 19.9512 8.74609C19.6074 8.48438 19.1602 8.35352 18.6094 8.35352C18.0625 8.35352 17.6152 8.48242 17.2676 8.74023C16.9238 8.99805 16.752 9.33398 16.752 9.74805C16.752 10.0684 16.877 10.332 17.127 10.5391C17.3809 10.7422 17.7949 10.918 18.3691 11.0664L19.2539 11.3008C20.1289 11.5195 20.7578 11.8105 21.1406 12.1738C21.5234 12.5371 21.7148 13.0215 21.7148 13.627C21.7148 14.4004 21.4297 15.0137 20.8594 15.4668C20.293 15.916 19.5234 16.1406 18.5508 16.1406C17.6523 16.1406 16.918 15.916 16.3477 15.4668C15.7773 15.0176 15.4668 14.4199 15.416 13.6738ZM29.2814 16L28.4318 13.5801H25.0685L24.2189 16H23.1115L26.2287 7.54492H27.2716L30.3888 16H29.2814ZM26.7326 8.82812L25.3791 12.6836H28.1213L26.7677 8.82812H26.7326ZM37.3284 15.0508V16H32.1956V7.54492H33.2503V15.0508H37.3284ZM44.5669 15.0508V16H39.3286V7.54492H44.5669V8.49414H40.3833V11.207H44.3501V12.1445H40.3833V15.0508H44.5669Z" fill="white"/>
</svg>
