<svg width="48" height="49" viewBox="0 0 48 49" fill="none" xmlns="http://www.w3.org/2000/svg">
<path fill-rule="evenodd" clip-rule="evenodd" d="M46.5 48.002C46.101 48.004 45.718 47.847 45.435 47.566L36 39.001H8C3.858 39.001 0 35.643 0 31.501V7.501C0 3.359 3.358 0 7.5 0H40.5C44.642 0 48 3.359 48 7.501V46.502C48 47.33 47.328 48.002 46.5 48.002ZM45 7.501C45 5.016 42.985 3 40.5 3H7.5C5.015 3 3 5.016 3 7.501V31.501C3 33.986 5.515 36.001 8 36.001H37C37.399 35.998 38.282 36.155 38.565 36.436L45 42.887V7.501ZM34.5 22.501C32.843 22.501 31.5 21.158 31.5 19.501C31.5 17.844 32.843 16.501 34.5 16.501C36.157 16.501 37.5 17.844 37.5 19.501C37.5 21.158 36.157 22.501 34.5 22.501ZM24 22.501C22.343 22.501 21 21.158 21 19.501C21 17.844 22.343 16.501 24 16.501C25.657 16.501 27 17.844 27 19.501C27 21.158 25.657 22.501 24 22.501ZM13.5 22.501C11.843 22.501 10.5 21.158 10.5 19.501C10.5 17.844 11.843 16.501 13.5 16.501C15.157 16.501 16.5 17.844 16.5 19.501C16.5 21.158 15.157 22.501 13.5 22.501Z" fill="white"/>
</svg>
