<svg width="43" height="39" viewBox="0 0 43 39" fill="none" xmlns="http://www.w3.org/2000/svg">
<path d="M14.4318 2.79532C15.8084 2.79532 17.1541 3.20353 18.2987 3.96833C19.4433 4.73313 20.3354 5.82017 20.8622 7.09198C21.389 8.3638 21.5269 9.76327 21.2583 11.1134C20.9897 12.4636 20.3268 13.7038 19.3534 14.6772C18.38 15.6506 17.1398 16.3135 15.7897 16.582C14.4395 16.8506 13.0401 16.7128 11.7682 16.186C10.4964 15.6592 9.40939 14.767 8.64459 13.6224C7.87979 12.4778 7.47158 11.1322 7.47158 9.75555C7.47158 7.90958 8.20489 6.13922 9.51018 4.83392C10.8155 3.52863 12.5858 2.79532 14.4318 2.79532ZM14.4318 0.0112305C12.5046 0.0112305 10.6206 0.582725 9.01815 1.65344C7.41571 2.72416 6.16676 4.24602 5.42923 6.02656C4.69171 7.8071 4.49874 9.76636 4.87472 11.6566C5.25071 13.5468 6.17877 15.2831 7.54153 16.6458C8.9043 18.0086 10.6406 18.9366 12.5308 19.3126C14.421 19.6886 16.3803 19.4956 18.1608 18.7581C19.9413 18.0206 21.4632 16.7716 22.5339 15.1692C23.6046 13.5668 24.1761 11.6828 24.1761 9.75555C24.1761 7.17119 23.1495 4.69269 21.3221 2.86527C19.4947 1.03786 17.0162 0.0112305 14.4318 0.0112305ZM28.3523 38.9885H25.5682V32.0283C25.5682 30.1823 24.8349 28.4119 23.5296 27.1067C22.2243 25.8014 20.4539 25.068 18.6079 25.068H10.2557C8.4097 25.068 6.63934 25.8014 5.33405 27.1067C4.02875 28.4119 3.29544 30.1823 3.29544 32.0283V38.9885H0.511353V32.0283C0.511353 29.4439 1.53798 26.9654 3.3654 25.138C5.19281 23.3106 7.67132 22.284 10.2557 22.284H18.6079C21.1923 22.284 23.6708 23.3106 25.4982 25.138C27.3256 26.9654 28.3523 29.4439 28.3523 32.0283V38.9885ZM28.3523 2.79532H42.2727V5.57941H28.3523V2.79532ZM28.3523 9.75555H42.2727V12.5396H28.3523V9.75555ZM28.3523 16.7158H38.0966V19.4999H28.3523V16.7158Z" fill="white"/>
</svg>
