<svg width="19" height="18" viewBox="0 0 19 18" fill="none" xmlns="http://www.w3.org/2000/svg">
<path d="M9.31445 0.03125C4.49805 0.03125 0.595703 3.93359 0.595703 8.75C0.595703 13.5664 4.49805 17.4688 9.31445 17.4688C14.1309 17.4688 18.0332 13.5664 18.0332 8.75C18.0332 3.93359 14.1309 0.03125 9.31445 0.03125ZM16.9082 8.75C16.9082 12.9336 13.498 16.3438 9.31445 16.3438C5.13086 16.3438 1.7207 12.9688 1.7207 8.75C1.7207 4.60156 5.0957 1.15625 9.31445 1.15625C13.4629 1.15625 16.9082 4.56641 16.9082 8.75ZM11.6699 11.8789C11.8457 12.0195 12.127 11.9492 12.2324 11.7734L12.5488 11.3867C12.6895 11.1758 12.6191 10.9297 12.4434 10.7891L9.98242 8.99609V3.82812C9.98242 3.61719 9.77148 3.40625 9.56055 3.40625H9.06836C8.82227 3.40625 8.64648 3.61719 8.64648 3.82812V9.45312C8.64648 9.59375 8.68164 9.69922 8.78711 9.80469L11.6699 11.8789Z" fill="#0F68AC"/>
</svg>
