<svg width="50" height="51" viewBox="0 0 50 51" fill="none" xmlns="http://www.w3.org/2000/svg">
<g clip-path="url(#clip0_1_1213)">
<path d="M41.6667 0.5H8.33333C6.1232 0.5 4.00358 1.37797 2.44078 2.94078C0.877974 4.50358 0 6.6232 0 8.83333L0 33.8333C0 36.0435 0.877974 38.1631 2.44078 39.7259C4.00358 41.2887 6.1232 42.1667 8.33333 42.1667H14.375L23.6479 50.0063C24.0241 50.3246 24.5009 50.4993 24.9937 50.4993C25.4866 50.4993 25.9634 50.3246 26.3396 50.0063L35.625 42.1667H41.6667C43.8768 42.1667 45.9964 41.2887 47.5592 39.7259C49.122 38.1631 50 36.0435 50 33.8333V8.83333C50 6.6232 49.122 4.50358 47.5592 2.94078C45.9964 1.37797 43.8768 0.5 41.6667 0.5V0.5ZM45.8333 33.8333C45.8333 34.9384 45.3943 35.9982 44.6129 36.7796C43.8315 37.561 42.7717 38 41.6667 38H35.625C34.6402 38.0003 33.6873 38.3494 32.9354 38.9854L25 45.6875L17.0687 38.9854C16.3158 38.3485 15.3612 37.9993 14.375 38H8.33333C7.22826 38 6.16846 37.561 5.38705 36.7796C4.60565 35.9982 4.16667 34.9384 4.16667 33.8333V8.83333C4.16667 7.72827 4.60565 6.66846 5.38705 5.88706C6.16846 5.10565 7.22826 4.66667 8.33333 4.66667H41.6667C42.7717 4.66667 43.8315 5.10565 44.6129 5.88706C45.3943 6.66846 45.8333 7.72827 45.8333 8.83333V33.8333Z" fill="white"/>
<path d="M14.5833 15.0832H25C25.5525 15.0832 26.0824 14.8637 26.4731 14.473C26.8638 14.0823 27.0833 13.5524 27.0833 12.9998C27.0833 12.4473 26.8638 11.9174 26.4731 11.5267C26.0824 11.136 25.5525 10.9165 25 10.9165H14.5833C14.0308 10.9165 13.5009 11.136 13.1102 11.5267C12.7195 11.9174 12.5 12.4473 12.5 12.9998C12.5 13.5524 12.7195 14.0823 13.1102 14.473C13.5009 14.8637 14.0308 15.0832 14.5833 15.0832Z" fill="white"/>
<path d="M35.4167 19.25H14.5833C14.0308 19.25 13.5009 19.4695 13.1102 19.8602C12.7195 20.2509 12.5 20.7808 12.5 21.3333C12.5 21.8859 12.7195 22.4158 13.1102 22.8065C13.5009 23.1972 14.0308 23.4167 14.5833 23.4167H35.4167C35.9692 23.4167 36.4991 23.1972 36.8898 22.8065C37.2805 22.4158 37.5 21.8859 37.5 21.3333C37.5 20.7808 37.2805 20.2509 36.8898 19.8602C36.4991 19.4695 35.9692 19.25 35.4167 19.25Z" fill="white"/>
<path d="M35.4167 27.5835H14.5833C14.0308 27.5835 13.5009 27.803 13.1102 28.1937C12.7195 28.5844 12.5 29.1143 12.5 29.6668C12.5 30.2194 12.7195 30.7493 13.1102 31.14C13.5009 31.5307 14.0308 31.7502 14.5833 31.7502H35.4167C35.9692 31.7502 36.4991 31.5307 36.8898 31.14C37.2805 30.7493 37.5 30.2194 37.5 29.6668C37.5 29.1143 37.2805 28.5844 36.8898 28.1937C36.4991 27.803 35.9692 27.5835 35.4167 27.5835Z" fill="white"/>
</g>
<defs>
<clipPath id="clip0_1_1213">
<rect width="50" height="50" fill="white" transform="translate(0 0.5)"/>
</clipPath>
</defs>
</svg>
