<svg width="18" height="18" viewBox="0 0 18 18" fill="none" xmlns="http://www.w3.org/2000/svg">
<path d="M10.793 4.91797L4.39453 7.87109C3.83203 8.15234 3.55078 8.75 3.65625 9.38281C3.79688 9.98047 4.32422 10.4023 4.92188 10.4023H7.06641V12.5469C7.06641 13.1445 7.48828 13.6719 8.08594 13.8125C8.19141 13.8125 8.29688 13.8477 8.40234 13.8477C8.89453 13.8477 9.35156 13.5312 9.59766 13.0742L12.5508 6.67578V6.64062C12.7266 6.18359 12.6211 5.62109 12.2344 5.23438C11.8477 4.84766 11.3203 4.74219 10.793 4.91797ZM8.57812 12.582C8.50781 12.6875 8.4375 12.7227 8.33203 12.6875C8.26172 12.6875 8.19141 12.6172 8.19141 12.5469V9.27734H4.92188C4.85156 9.27734 4.78125 9.20703 4.78125 9.13672C4.74609 9.03125 4.78125 8.96094 4.88672 8.92578L11.25 5.97266C11.2852 5.97266 11.2852 5.97266 11.3203 5.97266C11.3906 5.97266 11.4258 6.00781 11.4609 6.00781C11.4609 6.04297 11.5312 6.11328 11.4961 6.21875L8.57812 12.582ZM8.71875 0.03125C3.90234 0.03125 0 3.96875 0 8.75C0 13.5664 3.90234 17.4688 8.71875 17.4688C13.5 17.4688 17.4375 13.5664 17.4375 8.75C17.4375 3.96875 13.5 0.03125 8.71875 0.03125ZM8.71875 16.3438C4.5 16.3438 1.125 12.9688 1.125 8.75C1.125 4.56641 4.5 1.15625 8.71875 1.15625C12.9023 1.15625 16.3125 4.56641 16.3125 8.75C16.3125 12.9688 12.9023 16.3438 8.71875 16.3438Z" fill="#0F68AC"/>
</svg>
