<svg width="35" height="35" viewBox="0 0 35 35" fill="none" xmlns="http://www.w3.org/2000/svg">
<g clip-path="url(#clip0_1_1150)">
<path d="M17.5001 8.75C16.3464 8.75 15.2185 9.09212 14.2593 9.73309C13.3 10.3741 12.5523 11.2851 12.1108 12.351C11.6693 13.4169 11.5538 14.5898 11.7788 15.7214C12.0039 16.8529 12.5595 17.8923 13.3753 18.7081C14.1911 19.5239 15.2305 20.0795 16.3621 20.3046C17.4936 20.5297 18.6665 20.4141 19.7324 19.9726C20.7983 19.5311 21.7094 18.7834 22.3503 17.8242C22.9913 16.8649 23.3334 15.7371 23.3334 14.5833C23.3334 13.0362 22.7189 11.5525 21.6249 10.4585C20.5309 9.36458 19.0472 8.75 17.5001 8.75ZM17.5001 17.5C16.9232 17.5 16.3593 17.3289 15.8797 17.0085C15.4 16.688 15.0262 16.2324 14.8054 15.6995C14.5847 15.1665 14.5269 14.5801 14.6395 14.0143C14.752 13.4485 15.0298 12.9288 15.4377 12.5209C15.8456 12.113 16.3653 11.8352 16.9311 11.7227C17.4969 11.6102 18.0833 11.6679 18.6163 11.8887C19.1492 12.1094 19.6047 12.4833 19.9252 12.9629C20.2457 13.4426 20.4168 14.0065 20.4168 14.5833C20.4168 15.3569 20.1095 16.0987 19.5625 16.6457C19.0155 17.1927 18.2736 17.5 17.5001 17.5Z" fill="white"/>
<path d="M17.5 35C16.272 35.0063 15.0603 34.7183 13.9665 34.1601C12.8727 33.6019 11.9285 32.7897 11.2131 31.7916C5.65539 24.1252 2.83643 18.3619 2.83643 14.6606C2.83643 10.7716 4.38133 7.04187 7.13128 4.29192C9.88123 1.54197 13.611 -0.00292969 17.5 -0.00292969C21.389 -0.00292969 25.1187 1.54197 27.8687 4.29192C30.6186 7.04187 32.1635 10.7716 32.1635 14.6606C32.1635 18.3619 29.3446 24.1252 23.7869 31.7916C23.0714 32.7897 22.1272 33.6019 21.0334 34.1601C19.9396 34.7183 18.728 35.0063 17.5 35ZM17.5 3.18061C14.4556 3.18409 11.5369 4.395 9.38416 6.54772C7.23145 8.70043 6.02053 11.6191 6.01705 14.6635C6.01705 17.5948 8.77768 23.0154 13.7885 29.9264C14.2139 30.5124 14.772 30.9892 15.4171 31.3181C16.0621 31.6469 16.7759 31.8183 17.5 31.8183C18.224 31.8183 18.9378 31.6469 19.5829 31.3181C20.228 30.9892 20.786 30.5124 21.2114 29.9264C26.2223 23.0154 28.9829 17.5948 28.9829 14.6635C28.9794 11.6191 27.7685 8.70043 25.6158 6.54772C23.4631 4.395 20.5444 3.18409 17.5 3.18061Z" fill="white"/>
</g>
<defs>
<clipPath id="clip0_1_1150">
<rect width="35" height="35" fill="white"/>
</clipPath>
</defs>
</svg>
