<svg width="35" height="36" viewBox="0 0 35 36" fill="none" xmlns="http://www.w3.org/2000/svg">
<g clip-path="url(#clip0_1_1137)">
<path d="M34.9709 3.45022V9.28355C34.9709 9.67032 34.8173 10.0413 34.5438 10.3147C34.2703 10.5882 33.8994 10.7419 33.5126 10.7419C33.1258 10.7419 32.7549 10.5882 32.4814 10.3147C32.2079 10.0413 32.0543 9.67032 32.0543 9.28355V5.54584L24.3251 13.2342C24.0493 13.4991 23.6805 13.6452 23.2981 13.6408C22.9157 13.6365 22.5503 13.4821 22.2806 13.2109C22.0109 12.9397 21.8586 12.5734 21.8564 12.191C21.8542 11.8085 22.0023 11.4405 22.2688 11.1663L30.0272 3.45022H26.2209C25.8342 3.45022 25.4632 3.29657 25.1897 3.02308C24.9162 2.74959 24.7626 2.37866 24.7626 1.99188C24.7626 1.60511 24.9162 1.23418 25.1897 0.960685C25.4632 0.687194 25.8342 0.533549 26.2209 0.533549H32.0543C32.8278 0.533549 33.5697 0.84084 34.1167 1.38782C34.6636 1.9348 34.9709 2.67667 34.9709 3.45022ZM33.6511 24.9446C34.4963 25.7921 34.9708 26.9401 34.9708 28.1369C34.9708 29.3337 34.4963 30.4817 33.6511 31.3292L32.3211 32.8604C20.3759 44.2908 -8.68719 15.2365 2.57114 3.25626L4.24677 1.79792C5.09565 0.976548 6.23352 0.521971 7.41468 0.532339C8.59585 0.542707 9.72556 1.01719 10.5599 1.85334C10.6036 1.89855 13.3059 5.41022 13.3059 5.41022C14.1075 6.25233 14.5539 7.3709 14.5523 8.53353C14.5506 9.69617 14.1011 10.8135 13.2972 11.6533L11.607 13.7781C12.5415 16.0489 13.9156 18.1127 15.6502 19.8508C17.3848 21.5889 19.4458 22.9671 21.7147 23.9063L23.8511 22.2073C24.6909 21.4038 25.8079 20.9545 26.9702 20.9529C28.1325 20.9513 29.2508 21.3974 30.0928 22.1986C30.0928 22.1986 33.6059 24.9008 33.6511 24.9446ZM31.6459 27.065C31.6459 27.065 28.1561 24.3788 28.1109 24.335C27.8105 24.0371 27.4045 23.87 26.9814 23.87C26.5584 23.87 26.1524 24.0371 25.852 24.335C25.8126 24.3729 22.8711 26.7179 22.8711 26.7179C22.6729 26.8757 22.437 26.9791 22.1867 27.018C21.9363 27.0569 21.6802 27.0298 21.4434 26.9396C18.5023 25.8459 15.8309 24.1322 13.6105 21.9148C11.3901 19.6975 9.67282 17.0284 8.5751 14.0888C8.47907 13.8498 8.44805 13.5896 8.48519 13.3347C8.52233 13.0799 8.62631 12.8394 8.78656 12.6377C8.78656 12.6377 11.1301 9.69626 11.1695 9.65688C11.4674 9.35644 11.6345 8.95049 11.6345 8.5274C11.6345 8.10432 11.4674 7.69836 11.1695 7.39792C11.1257 7.35417 8.43948 3.86292 8.43948 3.86292C8.13472 3.58931 7.73685 3.44262 7.32742 3.45292C6.91799 3.46322 6.528 3.62974 6.23739 3.91834L4.56177 5.37667C-3.66906 15.2671 21.5207 39.0613 30.1876 30.8713L31.5176 29.34C31.8312 29.0523 32.02 28.6535 32.044 28.2286C32.068 27.8037 31.9251 27.3862 31.6459 27.065Z" fill="white"/>
</g>
<defs>
<clipPath id="clip0_1_1137">
<rect width="35" height="35" fill="white" transform="translate(0 0.5)"/>
</clipPath>
</defs>
</svg>
