<svg width="35" height="36" viewBox="0 0 35 36" fill="none" xmlns="http://www.w3.org/2000/svg">
<path d="M27.7083 1.9585H7.29167C5.35851 1.96081 3.50519 2.72978 2.13824 4.09673C0.771286 5.46369 0.00231563 7.31701 0 9.25017L0 26.7502C0.00231563 28.6833 0.771286 30.5367 2.13824 31.9036C3.50519 33.2706 5.35851 34.0395 7.29167 34.0418H27.7083C29.6415 34.0395 31.4948 33.2706 32.8618 31.9036C34.2287 30.5367 34.9977 28.6833 35 26.7502V9.25017C34.9977 7.31701 34.2287 5.46369 32.8618 4.09673C31.4948 2.72978 29.6415 1.96081 27.7083 1.9585ZM7.29167 4.87516H27.7083C28.5816 4.87688 29.4343 5.13987 30.1568 5.6303C30.8793 6.12072 31.4385 6.81613 31.7625 7.62704L20.5946 18.7964C19.7727 19.615 18.66 20.0746 17.5 20.0746C16.34 20.0746 15.2273 19.615 14.4054 18.7964L3.2375 7.62704C3.56147 6.81613 4.12069 6.12072 4.84319 5.6303C5.5657 5.13987 6.41844 4.87688 7.29167 4.87516ZM27.7083 31.1252H7.29167C6.13134 31.1252 5.01855 30.6642 4.19807 29.8438C3.3776 29.0233 2.91667 27.9105 2.91667 26.7502V11.4377L12.3433 20.8585C13.7122 22.2239 15.5666 22.9906 17.5 22.9906C19.4334 22.9906 21.2878 22.2239 22.6567 20.8585L32.0833 11.4377V26.7502C32.0833 27.9105 31.6224 29.0233 30.8019 29.8438C29.9814 30.6642 28.8686 31.1252 27.7083 31.1252Z" fill="white"/>
</svg>
