<svg width="30" height="39" viewBox="0 0 30 39" fill="none" xmlns="http://www.w3.org/2000/svg">
<path fill-rule="evenodd" clip-rule="evenodd" d="M29.972 16.3115L27.944 25.5055C27.715 26.5445 27.135 27.4835 26.311 28.1485C25.484 28.8165 24.443 29.1845 23.379 29.1845C22.731 29.1845 22.207 28.6595 22.207 28.0115C22.207 27.3645 22.731 26.8405 23.379 26.8405C24.48 26.8405 25.416 26.0825 25.655 25.0015L27.683 15.8065C27.823 15.1745 28.447 14.7745 29.08 14.9145C29.712 15.0535 30.112 15.6785 29.972 16.3115ZM17.519 29.1845H8.027C7.381 29.1845 6.855 29.7095 6.855 30.3555C6.855 30.3655 6.854 30.3755 6.854 30.3835C6.854 30.3945 6.855 30.4035 6.855 30.4145C6.855 31.0605 7.381 31.5865 8.027 31.5865H23.379C25.285 31.5865 26.836 33.1365 26.836 35.0435C26.836 36.9485 25.285 38.5005 23.379 38.5005C21.472 38.5005 19.922 36.9485 19.922 35.0435C19.922 34.6525 19.987 34.2795 20.107 33.9305H15.049C15.168 34.2795 15.234 34.6525 15.234 35.0435C15.234 36.9485 13.683 38.5005 11.777 38.5005C9.871 38.5005 8.32 36.9485 8.32 35.0435C8.32 34.6525 8.386 34.2795 8.505 33.9305H8.027C6.089 33.9305 4.512 32.3515 4.512 30.4145C4.512 30.4035 4.513 30.3945 4.513 30.3835C4.513 30.3745 4.512 30.3655 4.512 30.3555C4.512 28.9335 5.361 27.7065 6.579 27.1525L5.186 14.3555C4.917 12.3515 3.194 10.8445 1.172 10.8445C0.524 10.8445 0 10.3195 0 9.67151C0 9.02451 0.524 8.49951 1.172 8.49951C4.37 8.49951 7.095 10.8915 7.511 14.0625L7.515 14.0885L8.903 26.8405H17.519C18.166 26.8405 18.691 27.3645 18.691 28.0115C18.691 28.6595 18.166 29.1845 17.519 29.1845ZM23.379 36.1565C23.992 36.1565 24.492 35.6555 24.492 35.0435C24.492 34.4295 23.992 33.9305 23.379 33.9305C22.765 33.9305 22.265 34.4295 22.265 35.0435C22.265 35.6555 22.765 36.1565 23.379 36.1565ZM11.777 36.1565C12.391 36.1565 12.89 35.6555 12.89 35.0435C12.89 34.4295 12.391 33.9305 11.777 33.9305C11.163 33.9305 10.664 34.4295 10.664 35.0435C10.664 35.6555 11.163 36.1565 11.777 36.1565Z" fill="#0F68AC"/>
<circle cx="18.5" cy="8.99951" r="8.5" fill="#00A19C"/>
<path d="M16.4565 12.4995L16.4243 11.3394L18.9111 8.5249C19.2191 8.19548 19.4429 7.8929 19.5825 7.61719C19.7257 7.33789 19.7974 7.04427 19.7974 6.73633C19.7974 6.39616 19.6864 6.12581 19.4644 5.92529C19.2424 5.72119 18.9505 5.61914 18.5889 5.61914C18.2559 5.61914 17.9264 5.6818 17.6006 5.80713C17.2783 5.92887 17.0133 6.08285 16.8057 6.26904L16.4028 5.20557C16.9399 4.73291 17.6955 4.49658 18.6694 4.49658C19.4429 4.49658 20.0641 4.69173 20.5332 5.08203C21.0059 5.46875 21.2422 6.0166 21.2422 6.72559C21.2422 7.22689 21.1079 7.70492 20.8394 8.15967C20.5744 8.61442 20.2109 9.08171 19.749 9.56152L17.9766 11.4414H21.1509L21.0542 12.4995H16.4565Z" fill="white"/>
</svg>
