<svg width="35" height="36" viewBox="0 0 35 36" fill="none" xmlns="http://www.w3.org/2000/svg">
<g clip-path="url(#clip0_1_1145)">
<path d="M33.5418 16.5417C33.155 16.5417 32.7841 16.6953 32.5106 16.9688C32.2371 17.2423 32.0834 17.6132 32.0834 18C32.0953 21.391 30.929 24.6809 28.784 27.3073C26.639 29.9337 23.6483 31.7336 20.3233 32.3993C16.9982 33.065 13.5452 32.5552 10.5543 30.9571C7.56348 29.3589 5.22054 26.7716 3.92597 23.6374C2.63139 20.5032 2.46556 17.0167 3.4568 13.7738C4.44804 10.5308 6.53483 7.73283 9.36047 5.85802C12.1861 3.98321 15.5752 3.14797 18.9484 3.49508C22.3217 3.84219 25.4696 5.35009 27.8543 7.76104C27.8063 7.77412 27.7576 7.78435 27.7084 7.79167H23.3334C22.9467 7.79167 22.5757 7.94531 22.3022 8.2188C22.0287 8.49229 21.8751 8.86322 21.8751 9.25C21.8751 9.63677 22.0287 10.0077 22.3022 10.2812C22.5757 10.5547 22.9467 10.7083 23.3334 10.7083H27.7084C28.8688 10.7083 29.9816 10.2474 30.802 9.42692C31.6225 8.60645 32.0834 7.49365 32.0834 6.33333V1.95833C32.0834 1.57156 31.9298 1.20063 31.6563 0.927136C31.3828 0.653645 31.0119 0.5 30.6251 0.5C30.2383 0.5 29.8674 0.653645 29.5939 0.927136C29.3204 1.20063 29.1668 1.57156 29.1668 1.95833V4.96979C26.1809 2.30036 22.3694 0.736493 18.369 0.539525C14.3687 0.342557 10.422 1.52442 7.18833 3.88761C3.95466 6.25081 1.62997 9.65218 0.602705 13.5234C-0.42456 17.3945 -0.092164 21.501 1.54435 25.1566C3.18086 28.8121 6.02235 31.7953 9.594 33.6077C13.1657 35.42 17.2511 35.9517 21.1676 35.1139C25.0842 34.2761 28.5946 32.1196 31.1123 29.0047C33.6299 25.8897 35.0023 22.0052 35.0001 18C35.0001 17.6132 34.8465 17.2423 34.573 16.9688C34.2995 16.6953 33.9285 16.5417 33.5418 16.5417Z" fill="white"/>
<path d="M17.5001 9.25C17.1133 9.25 16.7424 9.40365 16.4689 9.67714C16.1954 9.95063 16.0417 10.3216 16.0417 10.7083V18C16.0418 18.3867 16.1955 18.7576 16.469 19.031L20.844 23.406C21.1191 23.6717 21.4875 23.8187 21.8698 23.8154C22.2522 23.812 22.618 23.6587 22.8884 23.3883C23.1588 23.1179 23.3121 22.7521 23.3155 22.3698C23.3188 21.9874 23.1718 21.619 22.9061 21.344L18.9584 17.3963V10.7083C18.9584 10.3216 18.8048 9.95063 18.5313 9.67714C18.2578 9.40365 17.8869 9.25 17.5001 9.25Z" fill="white"/>
</g>
<defs>
<clipPath id="clip0_1_1145">
<rect width="35" height="35" fill="white" transform="translate(0 0.5)"/>
</clipPath>
</defs>
</svg>
