<svg width="1264" height="574" viewBox="0 0 1264 574" fill="none" xmlns="http://www.w3.org/2000/svg">
<rect x="33" y="53" width="1200" height="450" rx="50" fill="#000D83"/>
<path d="M1 573C97.6667 423.667 355.759 226.334 737 431C1022 584 1236.33 390.333 1263 217" stroke="white" stroke-opacity="0.2" stroke-linecap="round"/>
<path d="M1 549C97.6667 399.667 355.759 202.334 737 407C1022 560 1236.33 366.333 1263 193" stroke="white" stroke-opacity="0.2" stroke-linecap="round"/>
<path d="M1 525C97.6667 375.667 355.759 178.334 737 383C1022 536 1236.33 342.333 1263 169" stroke="white" stroke-opacity="0.2" stroke-linecap="round"/>
<path d="M1 501C97.6667 351.667 355.759 154.334 737 359C1022 512 1236.33 318.333 1263 145" stroke="white" stroke-opacity="0.2" stroke-linecap="round"/>
<path d="M1 477C97.6667 327.667 355.759 130.334 737 335C1022 488 1236.33 294.333 1263 121" stroke="white" stroke-opacity="0.2" stroke-linecap="round"/>
<path d="M1 453C97.6667 303.667 355.759 106.334 737 311C1022 464 1236.33 270.333 1263 97" stroke="white" stroke-opacity="0.2" stroke-linecap="round"/>
<path d="M1 429C97.6667 279.667 355.759 82.3338 737 287C1022 440 1236.33 246.333 1263 73" stroke="white" stroke-opacity="0.2" stroke-linecap="round"/>
<path d="M1 405C97.6667 255.667 355.759 58.3338 737 263C1022 416 1236.33 222.333 1263 49" stroke="white" stroke-opacity="0.2" stroke-linecap="round"/>
<path d="M1 381C97.6667 231.667 355.759 34.3338 737 239C1022 392 1236.33 198.333 1263 25" stroke="white" stroke-opacity="0.2" stroke-linecap="round"/>
<path d="M1 357C97.6667 207.667 355.759 10.3338 737 215C1022 368 1236.33 174.333 1263 1" stroke="white" stroke-opacity="0.2" stroke-linecap="round"/>
</svg>
