<svg width="1200" height="450" viewBox="0 0 1200 450" fill="none" xmlns="http://www.w3.org/2000/svg">
<rect width="1200" height="450" rx="50" fill="#000D83"/>
<path d="M1 396C92.5346 303.296 336.924 180.794 697.926 307.848C967.795 402.829 1170.75 282.603 1196 175" stroke="white" stroke-opacity="0.2" stroke-linecap="round"/>
<path d="M1 381C92.5346 288.296 336.924 165.794 697.926 292.848C967.795 387.829 1170.75 267.603 1196 160" stroke="white" stroke-opacity="0.2" stroke-linecap="round"/>
<path d="M1 366C92.5346 273.296 336.924 150.794 697.926 277.848C967.795 372.829 1170.75 252.603 1196 145" stroke="white" stroke-opacity="0.2" stroke-linecap="round"/>
<path d="M1 351C92.5346 258.296 336.924 135.794 697.926 262.848C967.795 357.829 1170.75 237.603 1196 130" stroke="white" stroke-opacity="0.2" stroke-linecap="round"/>
<path d="M1 336C92.5346 243.296 336.924 120.794 697.926 247.848C967.795 342.829 1170.75 222.603 1196 115" stroke="white" stroke-opacity="0.2" stroke-linecap="round"/>
<path d="M1 321C92.5346 228.296 336.924 105.794 697.926 232.848C967.795 327.829 1170.75 207.603 1196 100" stroke="white" stroke-opacity="0.2" stroke-linecap="round"/>
<path d="M1 306C92.5346 213.296 336.924 90.7943 697.926 217.848C967.795 312.829 1170.75 192.603 1196 85" stroke="white" stroke-opacity="0.2" stroke-linecap="round"/>
<path d="M1 291C92.5346 198.296 336.924 75.7943 697.926 202.848C967.795 297.829 1170.75 177.603 1196 70" stroke="white" stroke-opacity="0.2" stroke-linecap="round"/>
<path d="M1 276C92.5346 183.296 336.924 60.7943 697.926 187.848C967.795 282.829 1170.75 162.603 1196 55" stroke="white" stroke-opacity="0.2" stroke-linecap="round"/>
<path d="M1 261C92.5346 168.296 336.924 45.7943 697.926 172.848C967.795 267.829 1170.75 147.603 1196 40" stroke="white" stroke-opacity="0.2" stroke-linecap="round"/>
</svg>
