<svg width="52" height="52" viewBox="0 0 52 52" fill="none" xmlns="http://www.w3.org/2000/svg">
<circle cx="26" cy="26" r="26" fill="#4AC7FF" fill-opacity="0.1"/>
<path d="M25.8934 20.0266L26.68 21.8666C26.7334 22.0266 26.88 22.12 27.0267 22.1333L29.0267 22.32C29.4534 22.36 29.6134 22.88 29.3067 23.16L27.8 24.48C27.68 24.5866 27.6267 24.7466 27.6667 24.8933L28.1067 26.8533C28.2 27.2666 27.76 27.5866 27.3867 27.3733L25.6667 26.3466C25.5334 26.2666 25.36 26.2666 25.2267 26.3466L23.5067 27.3733C23.1467 27.5866 22.6934 27.2666 22.7867 26.8533L23.2267 24.8933C23.2667 24.7466 23.2134 24.5866 23.0934 24.48L21.5867 23.16C21.2667 22.88 21.44 22.36 21.8667 22.32L23.8667 22.1333C24.0267 22.12 24.16 22.0266 24.2267 21.88L25.0134 20.04C25.1734 19.64 25.72 19.64 25.8934 20.0266Z" stroke="#4AC7FF" stroke-width="1.33333" stroke-miterlimit="10" stroke-linecap="round" stroke-linejoin="round"/>
<path d="M34.5165 23.9262C34.551 18.9188 30.5196 14.8316 25.5122 14.7971C20.5049 14.7626 16.4176 18.794 16.3832 23.8014C16.3487 28.8088 20.3801 32.896 25.3874 32.9304C30.3948 32.9649 34.482 28.9336 34.5165 23.9262Z" stroke="#4AC7FF" stroke-width="1.33333" stroke-miterlimit="10" stroke-linecap="round" stroke-linejoin="round"/>
<path d="M24.2134 32.84L21.96 38.5066L19.1067 35.24L14.8 35.64L17.6534 28.4933" stroke="#4AC7FF" stroke-width="1.33333" stroke-miterlimit="10" stroke-linecap="round" stroke-linejoin="round"/>
<path d="M26.6667 32.84L28.9334 38.5066L31.7734 35.24L36.0934 35.64L33.2267 28.4933" stroke="#4AC7FF" stroke-width="1.33333" stroke-miterlimit="10" stroke-linecap="round" stroke-linejoin="round"/>
</svg>
