<svg width="52" height="52" viewBox="0 0 52 52" fill="none" xmlns="http://www.w3.org/2000/svg">
<circle cx="26" cy="26" r="26" fill="#4AC7FF" fill-opacity="0.1"/>
<path d="M28.3867 20.5867C28.3867 20.5867 27.0267 19.3867 24.64 20.2267C22.44 20.9867 22.5467 24 25.88 24.8" stroke="#4AC7FF" stroke-width="1.6" stroke-miterlimit="10" stroke-linecap="round" stroke-linejoin="round"/>
<path d="M23.16 28.9601C23.16 28.9601 24.52 30.1601 26.9067 29.3201C29.12 28.5467 29.0133 25.5334 25.6667 24.7334" stroke="#4AC7FF" stroke-width="1.6" stroke-miterlimit="10" stroke-linecap="round" stroke-linejoin="round"/>
<path d="M26.0133 19.9334V17.9734" stroke="#4AC7FF" stroke-width="1.6" stroke-miterlimit="10" stroke-linecap="round" stroke-linejoin="round"/>
<path d="M26.0133 31.5734V29.6134" stroke="#4AC7FF" stroke-width="1.6" stroke-miterlimit="10" stroke-linecap="round" stroke-linejoin="round"/>
<path d="M25.7733 37.08C32.5701 37.08 38.08 31.5701 38.08 24.7733C38.08 17.9766 32.5701 12.4667 25.7733 12.4667C18.9766 12.4667 13.4667 17.9766 13.4667 24.7733C13.4667 31.5701 18.9766 37.08 25.7733 37.08Z" stroke="#4AC7FF" stroke-width="1.6" stroke-miterlimit="10" stroke-linecap="round" stroke-linejoin="round"/>
</svg>
