<svg width="52" height="52" viewBox="0 0 52 52" fill="none" xmlns="http://www.w3.org/2000/svg">
<circle cx="26" cy="26" r="26" fill="#4AC7FF" fill-opacity="0.1"/>
<path d="M30.9732 14.9467L28.2132 13.8267C27.1332 13.3867 25.8932 13.9067 25.4532 15L24.6132 17.0533C24.1732 18.1333 24.6932 19.3733 25.7865 19.8267L28.8398 21.0667C28.5198 22.6 28.0265 24.4 27.2532 26.3467C26.3865 28.5467 25.3865 30.36 24.4798 31.8133L21.4265 30.5733C20.3332 30.1333 19.0932 30.6533 18.6532 31.7467L17.8132 33.8C17.3732 34.8933 17.8932 36.1333 18.9865 36.5733L21.7465 37.6933L21.7998 37.72C24.7732 38.92 28.1998 37.76 29.7465 34.96C30.7865 33.08 31.8132 30.9733 32.7598 28.6133C33.6132 26.48 34.2798 24.44 34.7865 22.5467C35.6265 19.44 33.9998 16.2 31.0265 14.9867L30.9732 14.9467Z" stroke="#4AC7FF" stroke-width="1.6" stroke-miterlimit="10" stroke-linecap="round" stroke-linejoin="round"/>
</svg>
