<svg width="40" height="40" viewBox="0 0 40 40" fill="none" xmlns="http://www.w3.org/2000/svg">
<circle cx="20" cy="20" r="20" fill="#000D83"/>
<path d="M24.2021 22.4316C24.2021 23.5918 23.7832 24.5059 22.9453 25.1738C22.1133 25.8418 20.9531 26.1758 19.4648 26.1758C18.0938 26.1758 16.8809 25.918 15.8262 25.4023V22.8711C16.6934 23.2578 17.4258 23.5303 18.0234 23.6885C18.627 23.8467 19.1777 23.9258 19.6758 23.9258C20.2734 23.9258 20.7305 23.8115 21.0469 23.583C21.3691 23.3545 21.5303 23.0146 21.5303 22.5635C21.5303 22.3115 21.46 22.0889 21.3193 21.8955C21.1787 21.6963 20.9707 21.5059 20.6953 21.3242C20.4258 21.1426 19.8721 20.8525 19.0342 20.4541C18.249 20.085 17.6602 19.7305 17.2676 19.3906C16.875 19.0508 16.5615 18.6553 16.3271 18.2041C16.0928 17.7529 15.9756 17.2256 15.9756 16.6221C15.9756 15.4854 16.3594 14.5918 17.127 13.9414C17.9004 13.291 18.9668 12.9658 20.3262 12.9658C20.9941 12.9658 21.6299 13.0449 22.2334 13.2031C22.8428 13.3613 23.4785 13.584 24.1406 13.8711L23.2617 15.9893C22.5762 15.708 22.0078 15.5117 21.5566 15.4004C21.1113 15.2891 20.6719 15.2334 20.2383 15.2334C19.7227 15.2334 19.3271 15.3535 19.0518 15.5938C18.7764 15.834 18.6387 16.1475 18.6387 16.5342C18.6387 16.7744 18.6943 16.9854 18.8057 17.167C18.917 17.3428 19.0928 17.5156 19.333 17.6855C19.5791 17.8496 20.1562 18.1484 21.0645 18.582C22.2656 19.1562 23.0889 19.7334 23.5342 20.3135C23.9795 20.8877 24.2021 21.5938 24.2021 22.4316Z" fill="white"/>
</svg>
